<svg width="24" height="24" viewBox="0 0 24 24" fill="none" xmlns="http://www.w3.org/2000/svg">
<path d="M3.97694 22C3.83392 22 3.69676 21.9432 3.59563 21.8421C3.4945 21.7409 3.43768 21.6038 3.43768 21.4607C3.43768 21.3177 3.4945 21.1806 3.59563 21.0794C3.69676 20.9783 3.83392 20.9215 3.97694 20.9215H20.0231C20.1661 20.9215 20.3032 20.9783 20.4044 21.0794C20.5055 21.1806 20.5623 21.3177 20.5623 21.4607C20.5623 21.6038 20.5055 21.7409 20.4044 21.8421C20.3032 21.9432 20.1661 22 20.0231 22H3.97694ZM17.8775 19.6404V10.4059C17.877 10.3357 17.8903 10.2661 17.9167 10.201C17.9431 10.1359 17.982 10.0766 18.0313 10.0266C18.0806 9.97659 18.1393 9.93676 18.2039 9.9094C18.2686 9.88205 18.3381 9.8677 18.4083 9.86718H19.4172C19.4875 9.86757 19.557 9.88183 19.6217 9.90914C19.6865 9.93645 19.7452 9.97627 19.7945 10.0263C19.8438 10.0764 19.8828 10.1357 19.9091 10.2008C19.9355 10.266 19.9487 10.3357 19.948 10.4059V19.6404H17.8775ZM13.2229 19.6131V14.6896C13.2224 14.6194 13.2357 14.5498 13.2621 14.4847C13.2885 14.4196 13.3275 14.3604 13.3767 14.3103C13.426 14.2603 13.4847 14.2205 13.5494 14.1931C13.6141 14.1658 13.6835 14.1514 13.7537 14.1509H14.6966C14.7668 14.1513 14.8363 14.1655 14.9011 14.1929C14.9658 14.2202 15.0245 14.26 15.0738 14.31C15.1231 14.3601 15.1621 14.4194 15.1884 14.4845C15.2148 14.5497 15.228 14.6194 15.2273 14.6896V19.6131H13.2229ZM8.43177 19.6404V12.5619C8.43124 12.4917 8.44456 12.4221 8.47095 12.357C8.49734 12.2919 8.53629 12.2327 8.58558 12.1826C8.63487 12.1326 8.69353 12.0928 8.75821 12.0654C8.82289 12.0381 8.89233 12.0237 8.96256 12.0232H9.89222C9.96245 12.0237 10.0319 12.0381 10.0966 12.0654C10.1613 12.0928 10.2199 12.1326 10.2692 12.1826C10.3185 12.2327 10.3574 12.2919 10.3838 12.357C10.4102 12.4221 10.4235 12.4917 10.423 12.5619V19.6404H8.43177ZM4.03736 19.6404V15.7955C4.0367 15.7252 4.04992 15.6555 4.07627 15.5904C4.10261 15.5252 4.14156 15.4659 4.19087 15.4159C4.24018 15.3658 4.2989 15.326 4.36364 15.2987C4.42838 15.2714 4.49788 15.2571 4.56814 15.2567H5.39652C5.46675 15.2572 5.53618 15.2716 5.60087 15.2989C5.66555 15.3263 5.72421 15.3661 5.7735 15.4162C5.82278 15.4662 5.86174 15.5254 5.88813 15.5905C5.91452 15.6556 5.92783 15.7252 5.92731 15.7955V19.6404H4.03736ZM12.522 8.93506C12.5244 8.77231 12.5513 8.61084 12.6017 8.45606L10.7514 7.04693C10.4918 7.2241 10.1848 7.31887 9.87054 7.31887C9.55626 7.31887 9.24929 7.2241 8.98971 7.04693L7.13943 8.45606C7.18982 8.61084 7.21667 8.77231 7.21909 8.93506C7.22201 9.36023 7.05625 9.76921 6.75814 10.0724C6.46002 10.3755 6.05388 10.5481 5.62872 10.5523C5.1998 10.5523 4.78844 10.3819 4.48515 10.0786C4.18185 9.77534 4.01146 9.36399 4.01146 8.93506C4.01146 8.50614 4.18185 8.09478 4.48515 7.79149C4.78844 7.48819 5.1998 7.3178 5.62872 7.3178C5.94315 7.31774 6.25029 7.41249 6.51005 7.58967L8.35834 6.18054C8.30795 6.02577 8.2811 5.8643 8.27868 5.70154C8.27435 5.46928 8.32086 5.23889 8.41495 5.0265C8.50904 4.81411 8.64844 4.62486 8.82337 4.47202C8.99829 4.31917 9.20453 4.20642 9.42762 4.14167C9.65071 4.07692 9.88526 4.06173 10.1148 4.09717C10.3444 4.13261 10.5635 4.21782 10.7566 4.34683C10.9498 4.47584 11.1125 4.64552 11.2332 4.844C11.3539 5.04248 11.4297 5.26496 11.4554 5.49583C11.481 5.72671 11.4559 5.9604 11.3817 6.18054L13.232 7.59067C13.4915 7.41368 13.7983 7.31894 14.1124 7.3188C14.2395 7.32011 14.3659 7.33716 14.4888 7.36959L17.081 4.50752C16.8728 4.21938 16.7678 3.86951 16.7829 3.51436C16.7979 3.15921 16.9322 2.8195 17.1641 2.55003C17.3959 2.28057 17.7117 2.09707 18.0607 2.02914C18.4096 1.96122 18.7712 2.01283 19.0872 2.17565C19.4032 2.33847 19.6551 2.603 19.8023 2.92656C19.9495 3.25012 19.9834 3.61383 19.8985 3.95902C19.8136 4.3042 19.6149 4.61073 19.3345 4.82913C19.054 5.04753 18.7081 5.16507 18.3527 5.16279C18.2261 5.16232 18.1 5.14627 17.9773 5.11498L15.388 7.97307C15.5445 8.17479 15.6504 8.41103 15.6968 8.66204C15.7433 8.91305 15.729 9.17153 15.6551 9.41588C15.5813 9.66024 15.45 9.88337 15.2723 10.0666C15.0946 10.2499 14.8756 10.3879 14.6336 10.4692C14.3916 10.5505 14.1337 10.5727 13.8814 10.534C13.6291 10.4952 13.3897 10.3966 13.1833 10.2464C12.9769 10.0962 12.8094 9.89884 12.6949 9.6707C12.5803 9.44256 12.5221 9.19032 12.525 8.93506H12.522Z" fill="#757575"/>
</svg>
