<svg width="39" height="42" viewBox="0 0 39 42" fill="none" xmlns="http://www.w3.org/2000/svg">
<path d="M17.4993 30.5611C17.4425 30.4634 17.4056 30.3549 17.3905 30.2428C17.3754 30.1308 17.3824 30.0166 17.4114 29.9074C17.4404 29.7981 17.4906 29.6962 17.5592 29.6063C17.6278 29.5165 17.7134 29.4409 17.8112 29.3842C17.9091 29.3266 18.017 29.289 18.1295 29.2736C18.2419 29.2581 18.3561 29.2654 18.4659 29.2944C18.5756 29.3234 18.6786 29.3732 18.7687 29.4422C18.8588 29.5112 18.9343 29.5977 18.9908 29.6961C19.0936 29.8721 19.2411 30.018 19.4179 30.1195C19.5947 30.221 19.7944 30.2746 19.9982 30.2746C20.2026 30.2749 20.4038 30.2219 20.5812 30.1204C20.7586 30.0189 20.9067 29.8724 21.0101 29.6961C21.0663 29.5978 21.1415 29.5121 21.2313 29.4431C21.3211 29.3741 21.4229 29.3234 21.5323 29.2944C21.6417 29.2654 21.7565 29.2581 21.8687 29.2736C21.9809 29.289 22.0885 29.3267 22.186 29.3842C22.2842 29.4405 22.3699 29.5157 22.439 29.6054C22.5081 29.6951 22.5593 29.7971 22.5886 29.9064C22.6179 30.0158 22.6253 30.1306 22.6104 30.2428C22.5955 30.355 22.5584 30.4632 22.5016 30.5611C22.2455 30.9987 21.8796 31.3613 21.4398 31.6137C21.0001 31.8662 20.5016 31.9995 19.9946 32C19.4892 31.9987 18.9934 31.8653 18.5556 31.6128C18.1178 31.3604 17.7536 30.9978 17.4993 30.5611ZM10.8723 26.9343C10.6847 26.9361 10.5009 26.8763 10.3501 26.7648C10.1993 26.6532 10.0894 26.4959 10.0363 26.3159C9.98275 26.1394 9.98863 25.9504 10.0527 25.7774C10.1167 25.6044 10.2352 25.4567 10.3909 25.3576C10.9459 24.8813 11.3937 24.2924 11.7047 23.6303C12.685 21.5429 13.1476 19.2505 13.0529 16.9462C13.0559 15.1046 13.7888 13.3393 15.0912 12.0373C16.3935 10.7353 18.1594 10.0025 20.0009 10C21.8421 10.0029 23.6069 10.7354 24.9088 12.0373C26.2108 13.3393 26.9432 15.1049 26.9462 16.9462C26.8512 19.2504 27.3135 21.5427 28.2935 23.6303C28.6048 24.2921 29.0526 24.881 29.6073 25.3576C29.763 25.4566 29.8822 25.6035 29.9464 25.7765C30.0106 25.9494 30.0161 26.1393 29.9627 26.3159C29.9091 26.4955 29.7988 26.6524 29.6481 26.7638C29.4975 26.8753 29.3142 26.9355 29.1268 26.9343H10.8723ZM14.7756 16.9453C14.8767 19.5866 14.3179 22.2111 13.1499 24.5823C13.0237 24.8126 12.8989 25.0203 12.7791 25.2107H27.2245C27.0983 25.0203 26.9762 24.8126 26.8537 24.5823C25.685 22.2113 25.1259 19.5867 25.2271 16.9453C25.2254 15.5609 24.6746 14.233 23.6957 13.2541C22.7168 12.2752 21.3898 11.7253 20.0054 11.7236C18.6202 11.7239 17.2918 12.2735 16.3116 13.2523C15.3314 14.2311 14.7788 15.5591 14.7765 16.9444L14.7756 16.9453Z" fill="#3C4549"/>
<rect x="19.5" y="0.5" width="19" height="19" rx="9.5" fill="#D33D3D"/>
<rect x="19.5" y="0.5" width="19" height="19" rx="9.5" stroke="white"/>
<path d="M26.8003 14H25.3963V7.82L24.0883 9.176L23.2723 8.324L25.5763 5.996H26.8003V14ZM34.1669 14H28.3709V12.896C31.4789 10.544 32.6909 9.5 32.6909 8.348C32.6909 7.508 31.9709 7.124 31.2389 7.124C30.3029 7.124 29.5829 7.508 29.0789 8.084L28.2629 7.16C28.9709 6.308 30.0989 5.876 31.2149 5.876C32.7629 5.876 34.1189 6.752 34.1189 8.348C34.1189 9.824 32.7629 11.144 30.6149 12.764H34.1669V14Z" fill="white"/>
</svg>
