<svg width="24" height="22" viewBox="0 0 24 22" fill="none" xmlns="http://www.w3.org/2000/svg">
<path d="M19.2115 14.4231V16.8462H16.7885V14.4231H19.2115ZM19.2115 9.63462V12H16.7885V9.63462H19.2115ZM21.6346 19.2115V7.21154H12V9.63462H14.4231V12H12V14.4231H14.4231V16.8462H12V19.2115H21.6346ZM9.57692 4.78846V2.42308H7.21154V4.78846H9.57692ZM9.57692 9.63462V7.21154H7.21154V9.63462H9.57692ZM9.57692 14.4231V12H7.21154V14.4231H9.57692ZM9.57692 19.2115V16.8462H7.21154V19.2115H9.57692ZM4.78846 4.78846V2.42308H2.36538V4.78846H4.78846ZM4.78846 9.63462V7.21154H2.36538V9.63462H4.78846ZM4.78846 14.4231V12H2.36538V14.4231H4.78846ZM4.78846 19.2115V16.8462H2.36538V19.2115H4.78846ZM12 4.78846H24V21.6346H0V0H12V4.78846Z" fill="#3C4549"/>
</svg>
