<svg width="19" height="20" viewBox="0 0 19 20" fill="none" xmlns="http://www.w3.org/2000/svg">
<path d="M16.5572 18.9324V16.8316C16.5626 16.002 16.2386 15.204 15.6564 14.6129C15.0742 14.0217 14.2812 13.6857 13.4516 13.6784H5.17405C4.34454 13.6859 3.55187 14.0221 2.96987 14.6132C2.38788 15.2043 2.06407 16.0021 2.06947 16.8316V18.9324C2.07067 19.0694 2.04483 19.2053 1.99342 19.3323C1.942 19.4593 1.86604 19.5749 1.76987 19.6725C1.6737 19.77 1.55923 19.8477 1.433 19.9009C1.30677 19.9542 1.17127 19.982 1.03427 19.9828C0.897359 19.9819 0.761971 19.954 0.635859 19.9007C0.509748 19.8473 0.39539 19.7697 0.29933 19.6721C0.20327 19.5745 0.127394 19.459 0.0760469 19.3321C0.0246994 19.2051 -0.00111216 19.0693 8.96716e-05 18.9324V16.8316C-0.00800449 15.4501 0.532154 14.1218 1.50209 13.138C2.47203 12.1542 3.79256 11.5953 5.17405 11.5837H13.4526C14.8342 11.595 16.155 12.1538 17.1252 13.1377C18.0953 14.1215 18.6356 15.45 18.6275 16.8316V18.9324C18.6319 19.071 18.6083 19.2091 18.5583 19.3384C18.5082 19.4677 18.4327 19.5857 18.3362 19.6853C18.2397 19.7848 18.1242 19.864 17.9965 19.9181C17.8688 19.9721 17.7315 20 17.5929 20C17.4542 20 17.3169 19.9721 17.1892 19.9181C17.0615 19.864 16.946 19.7848 16.8495 19.6853C16.753 19.5857 16.6775 19.4677 16.6274 19.3384C16.5774 19.2091 16.5528 19.071 16.5572 18.9324ZM12.0639 18.9324V18.0502H11.1928C10.9843 18.0502 10.7844 17.9674 10.637 17.82C10.4896 17.6726 10.4068 17.4726 10.4068 17.2642C10.4068 17.0557 10.4896 16.8558 10.637 16.7084C10.7844 16.561 10.9843 16.4781 11.1928 16.4781H12.0649V15.5969C12.0649 15.3911 12.1466 15.1938 12.2921 15.0483C12.4376 14.9028 12.635 14.821 12.8408 14.821C13.0466 14.821 13.2439 14.9028 13.3894 15.0483C13.5349 15.1938 13.6167 15.3911 13.6167 15.5969V16.4781H14.4847C14.6932 16.4781 14.8931 16.561 15.0405 16.7084C15.1879 16.8558 15.2708 17.0557 15.2708 17.2642C15.2708 17.4726 15.1879 17.6726 15.0405 17.82C14.8931 17.9674 14.6932 18.0502 14.4847 18.0502H13.6126V18.9324C13.6126 19.0343 13.5925 19.1352 13.5536 19.2293C13.5146 19.3235 13.4574 19.409 13.3854 19.4811C13.3133 19.5531 13.2278 19.6103 13.1336 19.6493C13.0395 19.6882 12.9386 19.7083 12.8367 19.7083C12.7348 19.7083 12.6339 19.6882 12.5398 19.6493C12.4457 19.6103 12.3601 19.5531 12.2881 19.4811C12.216 19.409 12.1589 19.3235 12.1199 19.2293C12.0809 19.1352 12.0608 19.0343 12.0608 18.9324H12.0639ZM4.13986 5.27735C4.12625 4.58929 4.25001 3.90541 4.50391 3.26576C4.75781 2.6261 5.13675 2.04352 5.61854 1.55209C6.10034 1.06067 6.67531 0.670281 7.30982 0.403775C7.94432 0.13727 8.62562 0 9.31382 0C10.002 0 10.6833 0.13727 11.3178 0.403775C11.9523 0.670281 12.5273 1.06067 13.0091 1.55209C13.4909 2.04352 13.8698 2.6261 14.1237 3.26576C14.3776 3.90541 14.5014 4.58929 14.4878 5.27735C14.5014 5.96542 14.3776 6.6493 14.1237 7.28895C13.8698 7.9286 13.4909 8.51119 13.0091 9.00261C12.5273 9.49404 11.9523 9.88443 11.3178 10.1509C10.6833 10.4174 10.002 10.5547 9.31382 10.5547C8.62562 10.5547 7.94432 10.4174 7.30982 10.1509C6.67531 9.88443 6.10034 9.49404 5.61854 9.00261C5.13675 8.51119 4.75781 7.9286 4.50391 7.28895C4.25001 6.6493 4.12625 5.96542 4.13986 5.27735ZM6.20924 5.27735C6.21903 5.88917 6.40939 6.48446 6.75641 6.98843C7.10344 7.49241 7.59166 7.88259 8.15974 8.10998C8.72782 8.33736 9.35042 8.39181 9.94934 8.26647C10.5483 8.14113 11.0968 7.8416 11.526 7.40551C11.9553 6.96942 12.2461 6.41621 12.3619 5.81537C12.4777 5.21454 12.4134 4.59287 12.177 4.02847C11.9407 3.46407 11.5428 2.9821 11.0334 2.64311C10.5239 2.30412 9.92572 2.12322 9.31382 2.12314C8.48414 2.13064 7.69131 2.46694 7.10929 3.05827C6.52726 3.6496 6.20358 4.44766 6.20924 5.27735Z" fill="#0078D4"/>
</svg>
