<svg width="25" height="26" viewBox="0 0 25 26" fill="none" xmlns="http://www.w3.org/2000/svg">
<path d="M4.72908 20.1926C4.04976 20.2333 3.38213 20.0035 2.87119 19.554C2.36024 19.1045 2.04735 18.4722 2.00108 17.7933V8.23281C1.99964 8.2105 1.99964 8.18774 2.00108 8.16543C2.05953 7.49478 2.3772 6.87345 2.88632 6.43303C3.39545 5.9926 4.05603 5.76836 4.7281 5.80706H19.2719C19.9439 5.76861 20.6046 5.99363 21.1137 6.434C21.6227 6.87438 21.9402 7.49488 21.9989 8.16543C22.0004 8.18774 22.0004 8.2105 21.9989 8.23281V17.7933C21.9526 18.4722 21.6397 19.1045 21.1288 19.554C20.6179 20.0035 19.9502 20.2333 19.2709 20.1926H4.72908ZM3.81991 17.7933C3.83508 18.0196 3.93915 18.2303 4.10946 18.3802C4.27976 18.53 4.50263 18.6068 4.72908 18.5931H19.2729C19.4993 18.6068 19.7222 18.53 19.8925 18.3802C20.0628 18.2303 20.1669 18.0196 20.182 17.7933V9.73865L12.521 14.4495C12.3647 14.5466 12.184 14.5978 12 14.596C11.8161 14.5971 11.6356 14.546 11.479 14.4495L3.82089 9.73963L3.81991 17.7933ZM12 12.8226L20.0858 7.84707C20.0011 7.70872 19.8817 7.59457 19.7392 7.517C19.5967 7.43943 19.4361 7.40077 19.2738 7.40469H4.73006C4.56789 7.40097 4.40769 7.44042 4.26522 7.51797C4.12274 7.59553 4.00296 7.70886 3.91805 7.84707L12 12.8226Z" fill="#757575"/>
<circle cx="20" cy="21" r="4.5" fill="#0078D4" stroke="white"/>
</svg>
