<svg width="24" height="24" viewBox="0 0 24 24" fill="none" xmlns="http://www.w3.org/2000/svg">
<path d="M12 0C15.1826 0 18.2348 1.26428 20.4853 3.51472C22.7357 5.76515 24 8.8174 24 12C24 15.1826 22.7357 18.2348 20.4853 20.4853C18.2348 22.7357 15.1826 24 12 24C8.8174 24 5.76515 22.7357 3.51472 20.4853C1.26428 18.2348 0 15.1826 0 12C0 8.8174 1.26428 5.76515 3.51472 3.51472C5.76515 1.26428 8.8174 0 12 0ZM12 22.158C14.0091 22.158 15.973 21.5622 17.6435 20.4461C19.314 19.3299 20.6159 17.7434 21.3848 15.8873C22.1536 14.0312 22.3548 11.9887 21.9628 10.0183C21.5709 8.04781 20.6034 6.23783 19.1828 4.81721C17.7622 3.39659 15.9522 2.42913 13.9817 2.03718C12.0113 1.64523 9.96883 1.8464 8.1127 2.61523C6.25657 3.38407 4.67011 4.68604 3.55393 6.35652C2.43776 8.02699 1.842 9.99094 1.842 12C1.84491 14.6932 2.91606 17.2752 4.82043 19.1796C6.72479 21.0839 9.30682 22.1551 12 22.158Z" fill="#3C4549"/>
<path d="M11.3071 14.389L12.4131 14.016C12.3286 13.9493 12.2602 13.8644 12.2129 13.7676C12.1657 13.6708 12.1408 13.5647 12.1401 13.457C12.1401 12.352 14.3511 12.203 14.3511 10.365C14.3511 9.247 13.3951 8.415 11.8301 8.415C11.3147 8.40151 10.803 8.50542 10.3336 8.71886C9.86432 8.9323 9.44968 9.24968 9.12109 9.647L9.96609 10.578C10.161 10.3031 10.4202 10.0801 10.721 9.92826C11.0218 9.77646 11.3552 9.7005 11.6921 9.707C12.4871 9.707 12.8721 10.117 12.8721 10.601C12.8721 11.657 10.8721 11.801 10.8721 13.321C10.8667 13.5194 10.9025 13.7168 10.9774 13.9007C11.0523 14.0845 11.1646 14.2508 11.3071 14.389ZM11.7541 16.96C11.985 16.9543 12.2047 16.8592 12.3668 16.6946C12.5289 16.5301 12.6208 16.309 12.6231 16.078C12.6177 15.8503 12.524 15.6337 12.3619 15.4738C12.1997 15.3139 11.9818 15.2233 11.7541 15.221C11.5264 15.2233 11.3085 15.3139 11.1463 15.4738C10.9842 15.6337 10.8905 15.8503 10.8851 16.078C10.8874 16.309 10.9792 16.5301 11.1414 16.6946C11.3035 16.8592 11.5232 16.9543 11.7541 16.96Z" fill="#3C4549"/>
</svg>
