<svg width="29" height="24" viewBox="0 0 29 24" fill="none" xmlns="http://www.w3.org/2000/svg">
<path d="M27.7917 9.82909L21.75 9.81818C21.0854 9.81818 20.5417 10.3091 20.5417 10.9091V22.9091C20.5417 23.5091 21.0854 24 21.75 24H27.7917C28.4563 24 29 23.5091 29 22.9091V10.9091C29 10.3091 28.4563 9.82909 27.7917 9.82909ZM27.7917 21.8182H21.75V12H27.7917V21.8182ZM24.1667 0H2.41667C1.07542 0 0 0.970909 0 2.18182V17.4545C0 18.6545 1.07542 19.6364 2.41667 19.6364H10.875V21.8182H8.45833V24H18.125V21.8182H15.7083V19.6364H18.125V17.4545H2.41667V2.18182H24.1667V7.63636H26.5833V2.18182C26.5833 0.970909 25.4958 0 24.1667 0ZM14.4638 8.72727L13.2917 5.45455L12.1196 8.72727H8.45833L11.4429 10.6473L10.3071 13.8218L13.2917 11.8582L16.2763 13.8218L15.1404 10.6473L18.125 8.72727H14.4638Z" fill="#3C4549"/>
</svg>
