<svg width="24" height="23" viewBox="0 0 24 23" fill="none" xmlns="http://www.w3.org/2000/svg">
<path d="M2.57324 22.2861C1.89276 22.2872 1.23922 22.018 0.756836 21.5381C0.274448 21.0581 0.00238309 20.407 0 19.7266V7.78516C0.00238309 7.10468 0.274448 6.45358 0.756836 5.97363C1.23922 5.49368 1.89276 5.22452 2.57324 5.22559H5.90527V2.6123C5.9058 1.91972 6.18117 1.25536 6.6709 0.765625C7.16063 0.275895 7.82402 0.0005297 8.5166 0H15.4844C16.177 0.0005297 16.8403 0.275895 17.3301 0.765625C17.8198 1.25536 18.0952 1.91972 18.0957 2.6123V5.22559H21.4277C22.108 5.22479 22.761 5.49371 23.2432 5.97363C23.7253 6.45355 23.9976 7.10486 24 7.78516V18.875C23.9966 19.7821 23.6335 20.6515 22.9902 21.291C22.347 21.9305 21.4764 22.288 20.5693 22.2861H2.57324ZM1.71582 7.78613V19.7275C1.71595 19.8399 1.7381 19.9509 1.78125 20.0547C1.8244 20.1584 1.88818 20.2527 1.96777 20.332C2.04737 20.4113 2.14122 20.4738 2.24512 20.5166C2.34902 20.5594 2.46088 20.5813 2.57324 20.5811H20.5732C20.798 20.5818 21.0206 20.5385 21.2285 20.4531C21.4364 20.3678 21.6248 20.2424 21.7842 20.084C21.9436 19.9255 22.0707 19.7377 22.1572 19.5303C22.2438 19.3229 22.2885 19.0997 22.2891 18.875V7.78516C22.2889 7.67279 22.2668 7.56176 22.2236 7.45801C22.1805 7.35426 22.1167 7.25998 22.0371 7.18066C21.9575 7.10135 21.8637 7.03888 21.7598 6.99609C21.6559 6.95331 21.544 6.93138 21.4316 6.93164C16.5986 6.95464 7.40915 6.95464 2.57715 6.93164C2.46445 6.93085 2.35241 6.95257 2.24805 6.99512C2.14369 7.03767 2.04877 7.10032 1.96875 7.17969C1.88873 7.25905 1.82563 7.35302 1.78223 7.45703C1.73883 7.56104 1.71595 7.67245 1.71582 7.78516V7.78613ZM7.64746 2.61328V5.22656H16.3564V2.61328C16.3564 2.49895 16.3338 2.38589 16.29 2.28027C16.2463 2.17465 16.1815 2.07885 16.1006 1.99805C16.0197 1.91725 15.924 1.85323 15.8184 1.80957C15.7127 1.76591 15.5997 1.74303 15.4854 1.74316H8.51758C8.40333 1.74303 8.29017 1.76597 8.18457 1.80957C8.07897 1.85317 7.98322 1.91638 7.90234 1.99707C7.82146 2.07776 7.75771 2.17379 7.71387 2.2793C7.67002 2.3848 7.64759 2.49805 7.64746 2.6123V2.61328ZM10.2861 15.6133V11.6582C10.2859 11.5701 10.3086 11.4835 10.3525 11.4072C10.3965 11.3309 10.4598 11.2676 10.5361 11.2236C10.6124 11.1797 10.699 11.157 10.7871 11.1572C10.8752 11.1575 10.962 11.1812 11.0381 11.2256L14.4268 13.2041C14.5023 13.2481 14.5648 13.3119 14.6084 13.3877C14.652 13.4635 14.6748 13.5493 14.6748 13.6367C14.6748 13.7241 14.652 13.8099 14.6084 13.8857C14.5648 13.9615 14.5023 14.0243 14.4268 14.0684L11.0381 16.0439C10.9622 16.0892 10.8755 16.1134 10.7871 16.1133C10.6547 16.1138 10.5277 16.0619 10.4336 15.9688C10.3395 15.8756 10.2859 15.7486 10.2852 15.6162L10.2861 15.6133Z" fill="#3C4549"/>
</svg>
