<svg width="24" height="24" viewBox="0 0 24 24" fill="none" xmlns="http://www.w3.org/2000/svg">
<path d="M19.2431 20.9324V18.8316C19.2485 18.002 18.9246 17.204 18.3424 16.6129C17.7602 16.0217 16.9672 15.6857 16.1375 15.6784H7.86002C7.03052 15.6859 6.23784 16.0221 5.65585 16.6132C5.07385 17.2043 4.75005 18.0021 4.75544 18.8316V20.9324C4.75665 21.0694 4.7308 21.2053 4.67939 21.3323C4.62798 21.4593 4.55201 21.5749 4.45585 21.6725C4.35968 21.77 4.2452 21.8477 4.11897 21.9009C3.99274 21.9542 3.85725 21.982 3.72025 21.9828C3.58333 21.9819 3.44794 21.954 3.32183 21.9007C3.19572 21.8473 3.08136 21.7697 2.9853 21.6721C2.88924 21.5745 2.81337 21.459 2.76202 21.3321C2.71067 21.2051 2.68486 21.0693 2.68606 20.9324V18.8316C2.67797 17.4501 3.21813 16.1218 4.18807 15.138C5.158 14.1542 6.47853 13.5953 7.86002 13.5837H16.1386C17.5202 13.595 18.841 14.1538 19.8112 15.1377C20.7813 16.1215 21.3216 17.45 21.3135 18.8316V20.9324C21.3179 21.071 21.2943 21.2091 21.2443 21.3384C21.1942 21.4677 21.1187 21.5857 21.0222 21.6853C20.9257 21.7848 20.8101 21.864 20.6825 21.9181C20.5548 21.9721 20.4175 22 20.2788 22C20.1402 22 20.0029 21.9721 19.8752 21.9181C19.7475 21.864 19.632 21.7848 19.5355 21.6853C19.439 21.5857 19.3635 21.4677 19.3134 21.3384C19.2634 21.2091 19.2388 21.071 19.2431 20.9324ZM14.7499 20.9324V20.0502H13.8787C13.6703 20.0502 13.4704 19.9674 13.3229 19.82C13.1755 19.6726 13.0927 19.4726 13.0927 19.2642C13.0927 19.0557 13.1755 18.8558 13.3229 18.7084C13.4704 18.561 13.6703 18.4781 13.8787 18.4781H14.7509V17.5969C14.7509 17.3911 14.8326 17.1938 14.9781 17.0483C15.1236 16.9028 15.321 16.821 15.5268 16.821C15.7325 16.821 15.9299 16.9028 16.0754 17.0483C16.2209 17.1938 16.3026 17.3911 16.3026 17.5969V18.4781H17.1707C17.3792 18.4781 17.5791 18.561 17.7265 18.7084C17.8739 18.8558 17.9567 19.0557 17.9567 19.2642C17.9567 19.4726 17.8739 19.6726 17.7265 19.82C17.5791 19.9674 17.3792 20.0502 17.1707 20.0502H16.2986V20.9324C16.2986 21.0343 16.2785 21.1352 16.2395 21.2293C16.2005 21.3235 16.1434 21.409 16.0713 21.4811C15.9993 21.5531 15.9138 21.6103 15.8196 21.6493C15.7255 21.6882 15.6246 21.7083 15.5227 21.7083C15.4208 21.7083 15.3199 21.6882 15.2258 21.6493C15.1316 21.6103 15.0461 21.5531 14.9741 21.4811C14.902 21.409 14.8449 21.3235 14.8059 21.2293C14.7669 21.1352 14.7468 21.0343 14.7468 20.9324H14.7499ZM6.82584 7.27735C6.81222 6.58929 6.93598 5.90541 7.18989 5.26576C7.44379 4.6261 7.82272 4.04352 8.30452 3.55209C8.78631 3.06067 9.36129 2.67028 9.99579 2.40378C10.6303 2.13727 11.3116 2 11.9998 2C12.688 2 13.3693 2.13727 14.0038 2.40378C14.6383 2.67028 15.2133 3.06067 15.6951 3.55209C16.1769 4.04352 16.5558 4.6261 16.8097 5.26576C17.0636 5.90541 17.1874 6.58929 17.1738 7.27735C17.1874 7.96542 17.0636 8.6493 16.8097 9.28895C16.5558 9.9286 16.1769 10.5112 15.6951 11.0026C15.2133 11.494 14.6383 11.8844 14.0038 12.1509C13.3693 12.4174 12.688 12.5547 11.9998 12.5547C11.3116 12.5547 10.6303 12.4174 9.99579 12.1509C9.36129 11.8844 8.78631 11.494 8.30452 11.0026C7.82272 10.5112 7.44379 9.9286 7.18989 9.28895C6.93598 8.6493 6.81222 7.96542 6.82584 7.27735ZM8.89522 7.27735C8.905 7.88917 9.09536 8.48446 9.44239 8.98843C9.78942 9.49241 10.2776 9.88259 10.8457 10.11C11.4138 10.3374 12.0364 10.3918 12.6353 10.2665C13.2342 10.1411 13.7828 9.8416 14.212 9.40551C14.6412 8.96942 14.932 8.41621 15.0478 7.81537C15.1637 7.21454 15.0994 6.59287 14.863 6.02847C14.6266 5.46407 14.2287 4.9821 13.7193 4.64311C13.2099 4.30412 12.6117 4.12322 11.9998 4.12314C11.1701 4.13064 10.3773 4.46694 9.79526 5.05827C9.21324 5.6496 8.88955 6.44766 8.89522 7.27735Z" fill="#0078D4"/>
</svg>
