<svg width="19" height="20" viewBox="0 0 19 20" fill="none" xmlns="http://www.w3.org/2000/svg">
<path d="M9.98337 15.6937C9.99049 14.8507 10.247 14.0287 10.7205 13.3312C11.194 12.6337 11.8634 12.092 12.6443 11.7743C13.4252 11.4567 14.2826 11.3772 15.1086 11.546C15.9345 11.7148 16.692 12.1244 17.2856 12.723C17.8792 13.3216 18.2824 14.0825 18.4442 14.9099C18.6061 15.7372 18.5195 16.5939 18.1952 17.3721C17.871 18.1503 17.3237 18.8151 16.6222 19.2828C15.9208 19.7504 15.0966 20 14.2536 20C13.6904 19.9978 13.1332 19.8847 12.6137 19.6671C12.0942 19.4495 11.6228 19.1316 11.2262 18.7317C10.8296 18.3318 10.5157 17.8576 10.3025 17.3364C10.0892 16.8151 9.98081 16.2569 9.98337 15.6937ZM12.0566 15.304C11.9941 15.3656 11.9444 15.439 11.9104 15.5199C11.8765 15.6009 11.8591 15.6878 11.8591 15.7756C11.8591 15.8633 11.8765 15.9502 11.9104 16.0312C11.9444 16.1121 11.9941 16.1855 12.0566 16.2471L13.1147 17.313C13.2412 17.4322 13.4085 17.4985 13.5823 17.4985C13.7562 17.4985 13.9234 17.4322 14.05 17.313L16.1856 15.1598C16.2508 15.1009 16.3036 15.0297 16.341 14.9502C16.3784 14.8707 16.3996 14.7846 16.4035 14.6968C16.4073 14.6091 16.3936 14.5214 16.3632 14.439C16.3328 14.3566 16.2864 14.281 16.2265 14.2167C16.166 14.1535 16.0934 14.1032 16.0129 14.0688C15.9324 14.0344 15.8459 14.0167 15.7584 14.0167C15.6709 14.0167 15.5843 14.0344 15.5038 14.0688C15.4234 14.1032 15.3507 14.1535 15.2902 14.2167L13.6038 15.9178L12.9939 15.303C12.9334 15.2398 12.8607 15.1895 12.7803 15.1551C12.6998 15.1208 12.6132 15.103 12.5257 15.103C12.4382 15.103 12.3517 15.1208 12.2712 15.1551C12.1907 15.1895 12.1181 15.2398 12.0576 15.303L12.0566 15.304ZM1.97194 16.2062C1.44678 16.2034 0.944208 15.9923 0.57451 15.6193C0.204812 15.2463 -0.00180226 14.7419 1.18459e-05 14.2167L1.18459e-05 3.6097C-0.00180226 3.08454 0.204812 2.58011 0.57451 2.20713C0.944208 1.83414 1.44678 1.62307 1.97194 1.62023H3.39632V0.574841C3.39889 0.420653 3.46227 0.273724 3.57268 0.166059C3.68308 0.0583938 3.83155 -0.0012854 3.98576 2.10049e-05H5.44716C5.52239 0.000147617 5.59684 0.0151376 5.66625 0.04413C5.73566 0.0731223 5.79866 0.115546 5.85162 0.168961C5.90458 0.222377 5.94647 0.285732 5.97487 0.355386C6.00327 0.425041 6.01763 0.499621 6.01711 0.574841V1.62023H9.84016V0.574841C9.83964 0.499457 9.85406 0.424717 9.88258 0.354935C9.91111 0.285154 9.95316 0.221711 10.0063 0.16827C10.0595 0.114828 10.1227 0.072446 10.1924 0.0435686C10.262 0.0146912 10.3367 -0.000109397 10.4121 2.10049e-05H11.8559C11.9311 0.000147617 12.0056 0.0151376 12.075 0.04413C12.1444 0.0731223 12.2074 0.115546 12.2604 0.168961C12.3133 0.222377 12.3552 0.285732 12.3836 0.355386C12.412 0.425041 12.4264 0.499621 12.4259 0.574841V1.64069H13.8493C14.3744 1.64353 14.877 1.8546 15.2467 2.22759C15.6164 2.60057 15.823 3.105 15.8212 3.63016V10.2777C15.3883 10.1681 14.9459 10.0996 14.5001 10.0731V3.05361H1.34158V14.2362C1.34002 14.3224 1.35574 14.408 1.38782 14.488C1.4199 14.568 1.46768 14.6407 1.52835 14.7019C1.58902 14.7632 1.66134 14.8116 1.74105 14.8444C1.82075 14.8772 1.90622 14.8937 1.9924 14.8929V14.8724H8.72364C8.68304 15.1371 8.66252 15.4045 8.66226 15.6723C8.65831 15.8505 8.66514 16.0288 8.68272 16.2062H1.97194ZM7.09661 13.1392C6.97781 13.1377 6.86436 13.0895 6.78072 13.0052C6.69707 12.9208 6.64992 12.8069 6.64942 12.6881V11.4937C6.64992 11.3748 6.69707 11.261 6.78072 11.1766C6.86436 11.0922 6.97781 11.0441 7.09661 11.0426H8.74313C8.86094 11.0474 8.97257 11.0966 9.05567 11.1802C9.13878 11.2639 9.18721 11.3758 9.19129 11.4937V12.6832C9.19054 12.8021 9.14317 12.916 9.05937 13.0003C8.97556 13.0847 8.86202 13.1328 8.74313 13.1343L7.09661 13.1392ZM3.43724 13.1392C3.31844 13.1377 3.205 13.0895 3.12135 13.0052C3.03771 12.9208 2.99055 12.8069 2.99005 12.6881V11.4937C2.99055 11.3748 3.03771 11.261 3.12135 11.1766C3.205 11.0922 3.31844 11.0441 3.43724 11.0426H5.08376C5.20157 11.0474 5.3132 11.0966 5.39631 11.1802C5.47941 11.2639 5.52785 11.3758 5.53193 11.4937V12.6832C5.53117 12.8021 5.4838 12.916 5.4 13.0003C5.3162 13.0847 5.20265 13.1328 5.08376 13.1343L3.43724 13.1392ZM10.7569 9.87832C10.6381 9.87679 10.5245 9.82868 10.4407 9.74433C10.3569 9.65998 10.3095 9.54613 10.3088 9.42723V8.23277C10.3093 8.1138 10.3566 7.99979 10.4404 7.91539C10.5243 7.83099 10.638 7.78296 10.7569 7.78168H12.4035C12.5224 7.78296 12.6361 7.83099 12.72 7.91539C12.8038 7.99979 12.8511 8.1138 12.8516 8.23277V9.42236C12.8509 9.54125 12.8035 9.65511 12.7197 9.73946C12.6359 9.82381 12.5224 9.87192 12.4035 9.87344L10.7569 9.87832ZM7.09661 9.87832C6.97781 9.87678 6.86436 9.82864 6.78072 9.74427C6.69707 9.65989 6.64992 9.54604 6.64942 9.42723V8.23277C6.64966 8.11379 6.6967 7.99969 6.78038 7.9151C6.86405 7.83052 6.97764 7.78224 7.09661 7.78071H8.74313C8.86094 7.78555 8.97257 7.83472 9.05567 7.91836C9.13878 8.00201 9.18721 8.11396 9.19129 8.2318V9.42236C9.19054 9.54125 9.14317 9.65511 9.05937 9.73946C8.97556 9.82381 8.86202 9.87192 8.74313 9.87344L7.09661 9.87832ZM3.41678 9.87832C3.29789 9.87679 3.18435 9.82868 3.10054 9.74433C3.01674 9.65998 2.96937 9.54613 2.96862 9.42723V8.23277C2.96912 8.1138 3.01641 7.99979 3.10027 7.91539C3.18412 7.83099 3.29781 7.78296 3.41678 7.78168H5.06622C5.18519 7.78296 5.29889 7.83099 5.38274 7.91539C5.4666 7.99979 5.51388 8.1138 5.51439 8.23277V9.42236C5.51363 9.54125 5.46626 9.65511 5.38246 9.73946C5.29866 9.82381 5.18511 9.87192 5.06622 9.87344L3.41678 9.87832Z" fill="#757575"/>
<path d="M10.8755 6.72855C10.7566 6.72702 10.6431 6.67891 10.5593 6.59457C10.4755 6.51022 10.4281 6.39636 10.4274 6.27746V5.08301C10.4279 4.96403 10.4751 4.85003 10.559 4.76563C10.6429 4.68122 10.7565 4.6332 10.8755 4.63192H12.522C12.641 4.6332 12.7547 4.68122 12.8386 4.76563C12.9224 4.85003 12.9697 4.96403 12.9702 5.08301V6.27259C12.9694 6.39149 12.9221 6.50535 12.8383 6.58969C12.7545 6.67404 12.6409 6.72215 12.522 6.72368L10.8755 6.72855ZM7.21518 6.72855C7.09638 6.72702 6.98293 6.67888 6.89929 6.5945C6.81564 6.51013 6.76849 6.39627 6.76799 6.27746V5.08301C6.76823 4.96403 6.81527 4.84992 6.89895 4.76534C6.98262 4.68075 7.09621 4.63248 7.21518 4.63094H8.8617C8.97951 4.63579 9.09114 4.68495 9.17424 4.7686C9.25735 4.85224 9.30579 4.96419 9.30986 5.08203V6.27259C9.30911 6.39149 9.26174 6.50535 9.17794 6.58969C9.09413 6.67404 8.98059 6.72215 8.8617 6.72368L7.21518 6.72855ZM3.53535 6.72855C3.41646 6.72702 3.30292 6.67891 3.21911 6.59457C3.13531 6.51022 3.08794 6.39636 3.08719 6.27746V5.08301C3.08769 4.96403 3.13498 4.85003 3.21884 4.76563C3.30269 4.68122 3.41638 4.6332 3.53535 4.63192H5.18479C5.30376 4.6332 5.41746 4.68122 5.50131 4.76563C5.58517 4.85003 5.63245 4.96403 5.63296 5.08301V6.27259C5.6322 6.39149 5.58484 6.50535 5.50103 6.58969C5.41723 6.67404 5.30369 6.72215 5.18479 6.72368L3.53535 6.72855Z" fill="#757575"/>
</svg>
