<svg width="203" height="34" viewBox="0 0 203 34" fill="none" xmlns="http://www.w3.org/2000/svg">
<path d="M19.2115 20.6058V23.0288H16.7885V20.6058H19.2115ZM19.2115 15.8173V18.1827H16.7885V15.8173H19.2115ZM21.6346 25.3942V13.3942H12V15.8173H14.4231V18.1827H12V20.6058H14.4231V23.0288H12V25.3942H21.6346ZM9.57692 10.9711V8.60576H7.21154V10.9711H9.57692ZM9.57692 15.8173V13.3942H7.21154V15.8173H9.57692ZM9.57692 20.6058V18.1827H7.21154V20.6058H9.57692ZM9.57692 25.3942V23.0288H7.21154V25.3942H9.57692ZM4.78846 10.9711V8.60576H2.36538V10.9711H4.78846ZM4.78846 15.8173V13.3942H2.36538V15.8173H4.78846ZM4.78846 20.6058V18.1827H2.36538V20.6058H4.78846ZM4.78846 25.3942V23.0288H2.36538V25.3942H4.78846ZM12 10.9711H24V27.8173H0V6.18268H12V10.9711Z" fill="#3C4549"/>
<path d="M40.9117 9.12288C38.8637 9.12288 37.4198 7.62784 37.4198 5.59008C37.4198 3.55232 38.8637 2.05728 40.9117 2.05728C42.9597 2.05728 44.4035 3.55232 44.4035 5.59008C44.4035 7.62784 42.9597 9.12288 40.9117 9.12288ZM40.9117 8.05792C42.2838 8.05792 43.1747 6.99296 43.1747 5.59008C43.1747 4.17696 42.2838 3.12224 40.9117 3.12224C39.5293 3.12224 38.6486 4.17696 38.6486 5.59008C38.6486 6.99296 39.5293 8.05792 40.9117 8.05792ZM50.8409 9H49.4585L47.943 6.45024H46.7551V9H45.557V2.16992H48.5574C49.909 2.16992 50.7897 3.05056 50.7897 4.31008C50.7897 5.52864 49.991 6.184 49.1718 6.31712L50.8409 9ZM48.3935 5.39552C49.0694 5.39552 49.5609 4.96544 49.5609 4.31008C49.5609 3.65472 49.0694 3.22464 48.3935 3.22464H46.7551V5.39552H48.3935ZM55.2638 9.13312C53.2875 9.13312 51.6798 7.73024 51.6798 5.59008C51.6798 3.44992 53.2875 2.05728 55.2638 2.05728C56.595 2.05728 57.4654 2.69216 58.0184 3.48064L57.0354 4.0336C56.677 3.5216 56.0318 3.12224 55.2638 3.12224C53.9122 3.12224 52.9086 4.15648 52.9086 5.59008C52.9086 7.02368 53.9122 8.06816 55.2638 8.06816C55.9602 8.06816 56.5746 7.74048 56.8818 7.45376V6.3888H54.844V5.33408H58.0798V7.89408C57.404 8.6416 56.4517 9.13312 55.2638 9.13312ZM65.421 9H64.0591L63.5574 7.68928H60.4239L59.9222 9H58.5602L61.2431 2.16992H62.7382L65.421 9ZM63.2194 6.63456L61.9906 3.37824L60.7618 6.63456H63.2194ZM72.0858 9H70.9286L67.3651 4.12576V9H66.167V2.16992H67.3958L70.8877 6.91104V2.16992H72.0858V9ZM74.7351 9H73.537V2.16992H74.7351V9ZM81.0306 9H75.9106V8.0272L79.4024 3.22464H75.9106V2.16992H80.9589V3.14272L77.467 7.94528H81.0306V9ZM88.361 9H86.9991L86.4974 7.68928H83.3639L82.8622 9H81.5002L84.1831 2.16992H85.6782L88.361 9ZM86.1594 6.63456L84.9306 3.37824L83.7018 6.63456H86.1594ZM91.2633 9H90.0652V3.22464H87.9967V2.16992H93.3318V3.22464H91.2633V9ZM95.5451 9H94.347V2.16992H95.5451V9ZM100.182 9.12288C98.1337 9.12288 96.6898 7.62784 96.6898 5.59008C96.6898 3.55232 98.1337 2.05728 100.182 2.05728C102.23 2.05728 103.674 3.55232 103.674 5.59008C103.674 7.62784 102.23 9.12288 100.182 9.12288ZM100.182 8.05792C101.554 8.05792 102.445 6.99296 102.445 5.59008C102.445 4.17696 101.554 3.12224 100.182 3.12224C98.7993 3.12224 97.9186 4.17696 97.9186 5.59008C97.9186 6.99296 98.7993 8.05792 100.182 8.05792ZM110.746 9H109.589L106.025 4.12576V9H104.827V2.16992H106.056L109.548 6.91104V2.16992H110.746V9Z" fill="#777D80"/>
<path d="M43.528 29H38.136V18.328H43.384C45.336 18.328 46.424 19.544 46.424 21.048C46.424 22.392 45.56 23.288 44.568 23.496C45.704 23.672 46.632 24.808 46.632 26.12C46.632 27.768 45.528 29 43.528 29ZM43 22.744C43.96 22.744 44.504 22.168 44.504 21.368C44.504 20.568 43.96 19.976 43 19.976H40.008V22.744H43ZM43.08 27.352C44.104 27.352 44.712 26.792 44.712 25.864C44.712 25.064 44.152 24.392 43.08 24.392H40.008V27.352H43.08ZM50.143 29H48.463V18.328H50.143V29ZM59.2184 29H57.5384V27.976C56.9784 28.6 56.0184 29.192 54.8024 29.192C53.1384 29.192 52.3224 28.328 52.3224 26.744V21.272H54.0024V26.136C54.0024 27.336 54.6104 27.704 55.5544 27.704C56.4024 27.704 57.1384 27.224 57.5384 26.696V21.272H59.2184V29ZM64.9685 29.192C62.6485 29.192 60.9205 27.576 60.9205 25.128C60.9205 22.888 62.5525 21.08 64.8405 21.08C67.1605 21.08 68.6485 22.856 68.6485 25.288V25.688H62.6805C62.8085 26.856 63.6885 27.816 65.1445 27.816C65.8965 27.816 66.7925 27.512 67.3365 26.968L68.1045 28.072C67.3365 28.808 66.2005 29.192 64.9685 29.192ZM67.0165 24.504C66.9845 23.592 66.3605 22.456 64.8405 22.456C63.4005 22.456 62.7445 23.56 62.6645 24.504H67.0165ZM81.0401 29H74.4641V18.328H76.3361V27.352H81.0401V29ZM88.9255 29H87.2455V28.168C86.6695 28.824 85.7735 29.192 84.7495 29.192C83.4855 29.192 82.0615 28.344 82.0615 26.632C82.0615 24.856 83.4855 24.12 84.7495 24.12C85.7895 24.12 86.6855 24.456 87.2455 25.112V23.96C87.2455 23.064 86.5095 22.52 85.4375 22.52C84.5735 22.52 83.8215 22.84 83.1495 23.496L82.4615 22.328C83.3575 21.48 84.4775 21.08 85.7095 21.08C87.4215 21.08 88.9255 21.8 88.9255 23.88V29ZM85.4055 28.04C86.1415 28.04 86.8615 27.768 87.2455 27.24V26.072C86.8615 25.544 86.1415 25.272 85.4055 25.272C84.4615 25.272 83.7575 25.816 83.7575 26.664C83.7575 27.496 84.4615 28.04 85.4055 28.04ZM94.2396 32.136C92.9276 32.136 91.9516 31.848 91.0076 30.984L91.7916 29.768C92.4156 30.488 93.2156 30.76 94.2396 30.76C95.3436 30.76 96.5276 30.248 96.5276 28.664V27.736C95.9356 28.504 95.0556 29.016 94.0476 29.016C92.0796 29.016 90.6236 27.592 90.6236 25.048C90.6236 22.552 92.0636 21.08 94.0476 21.08C95.0236 21.08 95.9036 21.528 96.5276 22.344V21.272H98.2076V28.6C98.2076 31.384 96.1436 32.136 94.2396 32.136ZM94.5436 27.528C95.3276 27.528 96.1596 27.064 96.5276 26.488V23.608C96.1596 23.032 95.3276 22.568 94.5436 22.568C93.2156 22.568 92.3676 23.56 92.3676 25.048C92.3676 26.536 93.2156 27.528 94.5436 27.528ZM103.873 29.192C101.425 29.192 99.9049 27.352 99.9049 25.128C99.9049 22.92 101.425 21.08 103.873 21.08C106.353 21.08 107.857 22.92 107.857 25.128C107.857 27.352 106.353 29.192 103.873 29.192ZM103.873 27.704C105.313 27.704 106.113 26.504 106.113 25.128C106.113 23.768 105.313 22.568 103.873 22.568C102.449 22.568 101.649 23.768 101.649 25.128C101.649 26.504 102.449 27.704 103.873 27.704ZM113.045 29.192C110.597 29.192 109.077 27.352 109.077 25.128C109.077 22.92 110.597 21.08 113.045 21.08C115.525 21.08 117.029 22.92 117.029 25.128C117.029 27.352 115.525 29.192 113.045 29.192ZM113.045 27.704C114.485 27.704 115.285 26.504 115.285 25.128C115.285 23.768 114.485 22.568 113.045 22.568C111.621 22.568 110.821 23.768 110.821 25.128C110.821 26.504 111.621 27.704 113.045 27.704ZM125.625 29H123.945V24.168C123.945 22.968 123.337 22.568 122.393 22.568C121.529 22.568 120.793 23.08 120.409 23.608V29H118.729V21.272H120.409V22.328C120.921 21.72 121.913 21.08 123.129 21.08C124.793 21.08 125.625 21.976 125.625 23.56V29ZM137.084 29.192C133.932 29.192 131.484 26.952 131.484 23.672C131.484 20.392 133.932 18.152 137.084 18.152C139.244 18.152 140.572 19.272 141.372 20.552L139.772 21.368C139.26 20.488 138.236 19.816 137.084 19.816C134.972 19.816 133.404 21.432 133.404 23.672C133.404 25.912 134.972 27.528 137.084 27.528C138.236 27.528 139.26 26.872 139.772 25.976L141.372 26.792C140.556 28.072 139.244 29.192 137.084 29.192ZM144.502 29H142.822V18.328H144.502V29ZM147.514 20.328C146.954 20.328 146.474 19.864 146.474 19.288C146.474 18.712 146.954 18.248 147.514 18.248C148.09 18.248 148.554 18.712 148.554 19.288C148.554 19.864 148.09 20.328 147.514 20.328ZM148.362 29H146.682V21.272H148.362V29ZM157.437 29H155.757V24.168C155.757 22.968 155.149 22.568 154.205 22.568C153.341 22.568 152.605 23.08 152.221 23.608V29H150.541V21.272H152.221V22.328C152.733 21.72 153.725 21.08 154.941 21.08C156.605 21.08 157.437 21.976 157.437 23.56V29ZM160.451 20.328C159.891 20.328 159.411 19.864 159.411 19.288C159.411 18.712 159.891 18.248 160.451 18.248C161.027 18.248 161.491 18.712 161.491 19.288C161.491 19.864 161.027 20.328 160.451 20.328ZM161.299 29H159.619V21.272H161.299V29ZM166.999 29.192C164.647 29.192 162.999 27.48 162.999 25.128C162.999 22.792 164.647 21.08 166.999 21.08C168.503 21.08 169.415 21.72 169.959 22.456L168.855 23.48C168.423 22.872 167.831 22.568 167.079 22.568C165.671 22.568 164.743 23.624 164.743 25.128C164.743 26.632 165.671 27.704 167.079 27.704C167.831 27.704 168.423 27.384 168.855 26.792L169.959 27.816C169.415 28.552 168.503 29.192 166.999 29.192Z" fill="#757575"/>
<path d="M199.59 20.7951L195 25.3751L190.41 20.7951L189 22.2051L195 28.2051L201 22.2051L199.59 20.7951Z" fill="#757575"/>
</svg>
