<svg width="37" height="24" viewBox="0 0 37 24" fill="none" xmlns="http://www.w3.org/2000/svg">
<rect width="36.25" height="24" rx="6" fill="#757575"/>
<path d="M9.028 16.144C10.408 16.144 11.32 15.664 12.148 14.908C12.232 14.836 12.304 14.716 12.304 14.572C12.304 14.332 12.088 14.116 11.848 14.116C11.728 14.116 11.62 14.176 11.548 14.248C10.828 14.908 10.096 15.268 9.052 15.268C7.204 15.268 5.8 13.744 5.8 11.8V11.776C5.8 9.844 7.192 8.332 9.052 8.332C10.084 8.332 10.816 8.716 11.464 9.292C11.536 9.34 11.644 9.4 11.776 9.4C12.028 9.4 12.256 9.184 12.256 8.932C12.256 8.764 12.16 8.632 12.064 8.548C11.284 7.9 10.42 7.456 9.064 7.456C6.592 7.456 4.816 9.424 4.816 11.8V11.824C4.816 14.236 6.604 16.144 9.028 16.144ZM17.773 16.144C19.153 16.144 20.065 15.664 20.893 14.908C20.977 14.836 21.049 14.716 21.049 14.572C21.049 14.332 20.833 14.116 20.593 14.116C20.473 14.116 20.365 14.176 20.293 14.248C19.573 14.908 18.841 15.268 17.797 15.268C15.949 15.268 14.545 13.744 14.545 11.8V11.776C14.545 9.844 15.937 8.332 17.797 8.332C18.829 8.332 19.561 8.716 20.209 9.292C20.281 9.34 20.389 9.4 20.521 9.4C20.773 9.4 21.001 9.184 21.001 8.932C21.001 8.764 20.905 8.632 20.809 8.548C20.029 7.9 19.165 7.456 17.809 7.456C15.337 7.456 13.561 9.424 13.561 11.8V11.824C13.561 14.236 15.349 16.144 17.773 16.144ZM22.9124 15.592C22.9124 15.856 23.1164 16.06 23.3684 16.06C23.6324 16.06 23.8364 15.856 23.8364 15.592V9.328L26.5124 13.264C26.6204 13.42 26.7524 13.504 26.9204 13.504C27.0884 13.504 27.2084 13.42 27.3164 13.264L30.0044 9.316V15.58C30.0044 15.832 30.2204 16.06 30.4844 16.06C30.7364 16.06 30.9524 15.844 30.9524 15.58V8.032C30.9524 7.78 30.7364 7.564 30.4844 7.564H30.3764C30.1844 7.564 30.0284 7.66 29.9324 7.816L26.9324 12.328L23.9324 7.816C23.8364 7.672 23.6924 7.564 23.4884 7.564H23.3804C23.1284 7.564 22.9124 7.78 22.9124 8.032V15.592Z" fill="white" fill-opacity="0.8"/>
</svg>
