<svg width="25" height="26" viewBox="0 0 25 26" fill="none" xmlns="http://www.w3.org/2000/svg">
<path d="M2.00065 12.7816C2.03567 11.1485 2.47008 9.54885 3.26594 8.12237C4.3265 6.2096 5.98991 4.70029 7.99663 3.83047L8.00204 3.828C8.10165 3.78253 8.20932 3.75734 8.31876 3.7539C8.4282 3.75047 8.53723 3.76885 8.6395 3.80799C8.74176 3.84712 8.83522 3.90623 8.9144 3.98185C8.99359 4.05747 9.05694 4.1481 9.10074 4.24845C9.14455 4.3488 9.16794 4.45687 9.16955 4.56636C9.17116 4.67584 9.15096 4.78455 9.11013 4.88615C9.06929 4.98775 9.00864 5.0802 8.93171 5.15812C8.85478 5.23604 8.76309 5.29783 8.66203 5.33996L8.65753 5.34192C7.40622 5.88691 6.30751 6.73022 5.45752 7.79807C4.60753 8.86593 4.03216 10.1258 3.78172 11.4675C3.53129 12.8091 3.61343 14.1917 4.02095 15.4943C4.42848 16.7969 5.14898 17.9798 6.11943 18.9395C7.08987 19.8992 8.2807 20.6065 9.58773 20.9995C10.8948 21.3925 12.2782 21.4592 13.617 21.1939C14.9558 20.9285 16.2092 20.3392 17.2675 19.4773C18.3258 18.6155 19.157 17.5076 19.688 16.2503L19.6915 16.2413C19.7313 16.1381 19.7915 16.044 19.8684 15.9646C19.9453 15.8852 20.0373 15.822 20.1391 15.7788C20.2409 15.7357 20.3503 15.7134 20.4609 15.7134C20.5714 15.7134 20.6809 15.7355 20.7827 15.7786C20.8845 15.8217 20.9766 15.8848 21.0536 15.9642C21.1305 16.0436 21.1907 16.1377 21.2306 16.2408C21.2705 16.3439 21.2892 16.4539 21.2857 16.5644C21.2822 16.675 21.2564 16.7836 21.2101 16.8839L21.2062 16.8931C20.442 18.7004 19.163 20.2429 17.5286 21.3288C15.8943 22.4146 13.9767 22.9958 12.0145 23C11.577 22.9999 11.14 22.9715 10.7062 22.9149C9.08646 22.7034 7.54321 22.0985 6.21123 21.153C4.87923 20.2075 3.79905 18.9501 3.06507 17.4908C2.33108 16.0316 1.96564 14.4147 2.00065 12.7816Z" fill="#757575"/>
<path fill-rule="evenodd" clip-rule="evenodd" d="M11.9986 13.8281C11.7798 13.8281 11.5699 13.7412 11.4152 13.5865C11.2605 13.4317 11.1736 13.2219 11.1736 13.0031V3.825C11.1736 3.60619 11.2605 3.39635 11.4152 3.24164C11.5699 3.08692 11.7798 3 11.9986 3C14.6515 3 17.1959 4.05389 19.0718 5.92984C20.9478 7.80578 22.0016 10.3501 22.0016 13.0031C22.0016 13.2219 21.9147 13.4317 21.76 13.5865C21.6053 13.7412 21.3955 13.8281 21.1767 13.8281H11.9986ZM12.8236 4.67994V12.1781H20.3206L20.2702 11.825C20.0143 10.0343 19.1847 8.37482 17.9057 7.09565C16.6267 5.81648 14.9674 4.98657 13.1767 4.73046L12.8236 4.67994Z" fill="#757575"/>
<circle cx="20" cy="21" r="4.5" fill="#0078D4" stroke="white"/>
</svg>
