<svg width="25" height="26" viewBox="0 0 25 26" fill="none" xmlns="http://www.w3.org/2000/svg">
<path d="M6.76448 23C6.08466 22.9819 5.43974 22.695 4.9711 22.2022C4.50247 21.7094 4.24836 21.0509 4.26448 20.371V5.629C4.24809 4.94905 4.50211 4.29037 4.9708 3.7975C5.43949 3.30462 6.08457 3.01781 6.76448 3L13.7565 3H13.8135H13.8495C14.0057 3.02027 14.1513 3.09041 14.2645 3.2L14.2755 3.21L14.2815 3.216L14.2885 3.224L19.5325 8.76C19.5959 8.82681 19.6471 8.90435 19.6835 8.989L19.6895 9V9.007V9.016V9.027L19.6945 9.041C19.7165 9.10568 19.7302 9.17288 19.7355 9.241C19.7355 9.247 19.7355 9.253 19.7355 9.258V9.265C19.7355 9.265 19.7355 9.273 19.7355 9.277C19.7355 9.281 19.7355 9.29 19.7355 9.297V20.371C19.7517 21.048 19.4999 21.704 19.0349 22.1964C18.5699 22.6887 17.9293 22.9775 17.2525 23H6.76448ZM5.76448 5.629V20.371C5.75748 20.6436 5.85878 20.9079 6.0462 21.106C6.23362 21.3041 6.49189 21.4199 6.76448 21.428H17.2545C17.5271 21.4199 17.7853 21.3041 17.9728 21.106C18.1602 20.9079 18.2615 20.6436 18.2545 20.371V10.1H13.7545C13.5509 10.095 13.3577 10.0094 13.2173 9.86204C13.0768 9.71466 13.0006 9.51753 13.0055 9.314V4.571H6.76448C6.49171 4.57911 6.23329 4.69503 6.04584 4.89334C5.85839 5.09166 5.75721 5.35621 5.76448 5.629ZM14.5065 8.529H17.2005L14.5045 5.689L14.5065 8.529ZM8.51048 18.393C8.31054 18.3806 8.12285 18.2925 7.98564 18.1465C7.84843 18.0006 7.77205 17.8078 7.77205 17.6075C7.77205 17.4072 7.84843 17.2144 7.98564 17.0685C8.12285 16.9225 8.31054 16.8344 8.51048 16.822H15.5045C15.7044 16.8344 15.8921 16.9225 16.0293 17.0685C16.1665 17.2144 16.2429 17.4072 16.2429 17.6075C16.2429 17.8078 16.1665 18.0006 16.0293 18.1465C15.8921 18.2925 15.7044 18.3806 15.5045 18.393H8.51048ZM8.51048 14.707C8.31054 14.6946 8.12285 14.6065 7.98564 14.4605C7.84843 14.3146 7.77205 14.1218 7.77205 13.9215C7.77205 13.7212 7.84843 13.5284 7.98564 13.3825C8.12285 13.2365 8.31054 13.1484 8.51048 13.136H15.5045C15.7044 13.1484 15.8921 13.2365 16.0293 13.3825C16.1665 13.5284 16.2429 13.7212 16.2429 13.9215C16.2429 14.1218 16.1665 14.3146 16.0293 14.4605C15.8921 14.6065 15.7044 14.6946 15.5045 14.707H8.51048ZM8.51048 11.021C8.31054 11.0086 8.12285 10.9205 7.98564 10.7745C7.84843 10.6286 7.77205 10.4358 7.77205 10.2355C7.77205 10.0352 7.84843 9.8424 7.98564 9.69645C8.12285 9.5505 8.31054 9.46236 8.51048 9.45H10.2595C10.4594 9.46236 10.6471 9.5505 10.7843 9.69645C10.9215 9.8424 10.9979 10.0352 10.9979 10.2355C10.9979 10.4358 10.9215 10.6286 10.7843 10.7745C10.6471 10.9205 10.4594 11.0086 10.2595 11.021H8.51048Z" fill="#757575"/>
<circle cx="20" cy="21" r="4.5" fill="#0078D4" stroke="white"/>
</svg>
