<svg width="24" height="24" viewBox="0 0 24 24" fill="none" xmlns="http://www.w3.org/2000/svg">
<rect width="24" height="24" rx="4" fill="#625CE5"/>
<path d="M11.756 16.216C13.124 16.216 14.402 15.766 15.284 14.938L14.42 13.696C13.79 14.326 12.8 14.668 11.936 14.668C10.298 14.668 9.326 13.57 9.182 12.274H15.878V11.806C15.878 9.07 14.222 7.09 11.612 7.09C9.038 7.09 7.202 9.124 7.202 11.644C7.202 14.398 9.128 16.216 11.756 16.216ZM14.06 10.924H9.164C9.236 9.88 9.992 8.638 11.594 8.638C13.304 8.638 14.006 9.898 14.06 10.924Z" fill="white"/>
</svg>
