<svg width="24" height="24" viewBox="0 0 24 24" fill="none" xmlns="http://www.w3.org/2000/svg">
<path d="M5.74745 4.74679C4.83687 4.74679 4.09869 5.50558 4.09869 6.44159V18.3052C4.09869 19.2412 4.83687 20 5.74745 20H17.2888C18.1994 20 18.9375 19.2412 18.9375 18.3052V11.526C18.9375 11.058 18.5684 10.6786 18.1131 10.6786C17.6579 10.6786 17.2888 11.058 17.2888 11.526V18.3052H5.74745V6.44159H12.3425C12.7978 6.44159 13.1669 6.0622 13.1669 5.59419C13.1669 5.12619 12.7978 4.74679 12.3425 4.74679H5.74745Z" fill="#757575"/>
<path fill-rule="evenodd" clip-rule="evenodd" d="M9.07001 11.8192L16.008 4.68664C16.436 4.24665 17.016 4 17.6201 4C17.9192 4 18.2156 4.06057 18.4921 4.17833C18.7687 4.29608 19.0202 4.46876 19.2321 4.68664C19.4441 4.90453 19.6124 5.16334 19.7273 5.44838C19.8421 5.73343 19.9013 6.03903 19.9013 6.34771C19.9013 6.6564 19.8421 6.962 19.7273 7.24704C19.6124 7.53208 19.4441 7.7909 19.2321 8.00878L12.2933 15.1414C12.1992 15.2382 12.0815 15.3066 11.953 15.3395L9.03203 16.0895C8.97431 16.1044 8.91454 16.1118 8.85507 16.1117C8.75942 16.1119 8.6646 16.0926 8.57605 16.055C8.48753 16.0174 8.40692 15.9622 8.33891 15.8923C8.2497 15.8001 8.18484 15.6856 8.15084 15.5597C8.11684 15.4338 8.11494 15.3008 8.14524 15.1739L8.87638 12.1702C8.90873 12.037 8.97587 11.9156 9.07001 11.8192ZM18.4006 6.67058C18.3511 6.77323 18.2816 6.86454 18.1962 6.93875L11.4072 13.9241L9.86617 14.3203L10.2503 12.7417L17.0421 5.75948C17.1142 5.67184 17.2033 5.60017 17.3039 5.54908C17.4058 5.4973 17.5172 5.46783 17.631 5.46267C17.7449 5.45751 17.8584 5.47678 17.9645 5.51916C18.0705 5.56155 18.1666 5.62608 18.2467 5.70849C18.3268 5.79089 18.3892 5.88936 18.43 5.99756C18.4708 6.10575 18.4893 6.22141 18.4842 6.3372C18.4792 6.45299 18.4507 6.56652 18.4006 6.67058Z" fill="#757575"/>
</svg>
