<svg width="50" height="16" viewBox="0 0 50 16" fill="none" xmlns="http://www.w3.org/2000/svg">
<path d="M15.162 12V10.661H11.34V3.329H9.819V12H15.162ZM19.3117 12.156C20.2997 12.156 21.2227 11.831 21.8597 11.233L21.2357 10.336C20.7807 10.791 20.0657 11.038 19.4417 11.038C18.2587 11.038 17.5567 10.245 17.4527 9.309H22.2887V8.971C22.2887 6.995 21.0927 5.565 19.2077 5.565C17.3487 5.565 16.0227 7.034 16.0227 8.854C16.0227 10.843 17.4137 12.156 19.3117 12.156ZM20.9757 8.334H17.4397C17.4917 7.58 18.0377 6.683 19.1947 6.683C20.4297 6.683 20.9367 7.593 20.9757 8.334ZM25.9241 12.156C27.6141 12.156 28.5371 11.311 28.5371 10.193C28.5371 7.697 24.7411 8.529 24.7411 7.424C24.7411 6.982 25.1831 6.644 25.8981 6.644C26.6911 6.644 27.3801 6.982 27.7571 7.398L28.3291 6.436C27.7701 5.942 26.9641 5.565 25.8981 5.565C24.3121 5.565 23.4281 6.436 23.4281 7.463C23.4281 9.881 27.2241 8.997 27.2241 10.232C27.2241 10.726 26.7951 11.064 25.9761 11.064C25.1701 11.064 24.2991 10.648 23.8571 10.193L23.2331 11.168C23.8831 11.805 24.8451 12.156 25.9241 12.156ZM32.1859 12.156C33.8759 12.156 34.7989 11.311 34.7989 10.193C34.7989 7.697 31.0029 8.529 31.0029 7.424C31.0029 6.982 31.4449 6.644 32.1599 6.644C32.9529 6.644 33.6419 6.982 34.0189 7.398L34.5909 6.436C34.0319 5.942 33.2259 5.565 32.1599 5.565C30.5739 5.565 29.6899 6.436 29.6899 7.463C29.6899 9.881 33.4859 8.997 33.4859 10.232C33.4859 10.726 33.0569 11.064 32.2379 11.064C31.4319 11.064 30.5609 10.648 30.1189 10.193L29.4949 11.168C30.1449 11.805 31.1069 12.156 32.1859 12.156ZM37.0047 12.143C37.4987 12.143 37.9147 11.714 37.9147 11.22C37.9147 10.739 37.4987 10.323 37.0047 10.323C36.5107 10.323 36.0947 10.739 36.0947 11.22C36.0947 11.714 36.5107 12.143 37.0047 12.143ZM40.334 12.143C40.828 12.143 41.244 11.714 41.244 11.22C41.244 10.739 40.828 10.323 40.334 10.323C39.84 10.323 39.424 10.739 39.424 11.22C39.424 11.714 39.84 12.143 40.334 12.143ZM43.6632 12.143C44.1572 12.143 44.5732 11.714 44.5732 11.22C44.5732 10.739 44.1572 10.323 43.6632 10.323C43.1692 10.323 42.7532 10.739 42.7532 11.22C42.7532 11.714 43.1692 12.143 43.6632 12.143Z" fill="#0078D4"/>
<path d="M0.5 13.3824V2.06592" stroke="#3C4549"/>
</svg>
