<svg width="48" height="33" viewBox="0 0 48 33" fill="none" xmlns="http://www.w3.org/2000/svg">
<path d="M11.9048 32.9412C15.9625 32.9412 19.1483 31.2727 21.4286 28.7365V20.1938H10.7646V24.3317H16.6667V27.0013C15.7613 27.8355 13.8833 28.7032 11.9048 28.7032C7.8471 28.7032 4.89605 25.5997 4.89605 21.3951C4.89605 17.1904 7.8471 14.087 11.9048 14.087C14.2857 14.087 16.1972 15.4218 17.2033 16.9902L21.1603 14.8545C19.4836 12.2183 16.5661 9.88235 11.9048 9.88235C5.36554 9.88235 0 14.354 0 21.3951C0 28.4028 5.36554 32.9412 11.9048 32.9412Z" fill="#0078D4"/>
<path d="M32.9553 32.9078C38.3209 32.9078 41.5402 29.0369 41.5402 24.4318C41.5402 19.8601 38.3209 15.9891 32.9553 15.9891C27.6233 15.9891 24.404 19.8601 24.404 24.4318C24.404 29.0369 27.6233 32.9078 32.9553 32.9078ZM32.9553 29.137C30.3061 29.137 28.8306 26.9679 28.8306 24.4318C28.8306 21.929 30.3061 19.7599 32.9553 19.7599C35.6046 19.7599 37.1136 21.929 37.1136 24.4318C37.1136 26.9679 35.6046 29.137 32.9553 29.137Z" fill="#0078D4"/>
<path d="M44.2991 6.48151C44.528 6.28416 44.7934 6.13522 45.0797 6.04343C45.3661 5.95164 45.6676 5.91885 45.9666 5.94698C46.2656 5.97512 46.556 6.06361 46.8209 6.20726C47.0857 6.35091 47.3196 6.54683 47.5088 6.78351C47.875 7.24538 48.0474 7.83503 47.9887 8.42493C47.93 9.01482 47.6449 9.55755 47.1951 9.93574C46.7453 10.3139 46.1668 10.4972 45.5849 10.4458C45.0031 10.3945 44.4645 10.1127 44.0856 9.66144L41.366 11.5445C41.5114 11.856 41.5868 12.1964 41.5868 12.5411C41.5868 12.8859 41.5114 13.2263 41.366 13.5378C41.1437 14.0112 40.7629 14.389 40.2914 14.6037C39.8112 14.8358 39.2651 14.886 38.7516 14.7453C38.2381 14.6046 37.7911 14.2821 37.4913 13.8362C37.1756 13.3731 37.0393 12.8081 37.1085 12.2493C37.1776 11.6906 37.4473 11.1773 37.8659 10.8078C38.2846 10.4383 38.8227 10.2384 39.3775 10.2465C39.9322 10.2546 40.4645 10.4701 40.8725 10.8517L42.388 9.82488C42.7766 9.55485 43.1651 9.28482 43.5571 9.01835C43.5984 8.99902 43.6305 8.96384 43.6462 8.92053C43.662 8.87722 43.6601 8.82933 43.6411 8.7874C43.5168 8.35247 43.5302 7.88887 43.6796 7.46213C43.6905 7.44215 43.6974 7.42015 43.6998 7.39742C43.7022 7.37469 43.7001 7.35171 43.6935 7.32983C43.687 7.30796 43.6762 7.28764 43.6618 7.27008C43.6474 7.25253 43.6296 7.23809 43.6096 7.22763L41.198 5.42271C41.072 5.5293 40.9565 5.643 40.8269 5.74248C40.3464 6.14675 39.7568 6.39427 39.1354 6.45259C38.514 6.51092 37.8896 6.37734 37.3443 6.06936C36.7844 5.80076 36.3176 5.36656 36.0053 4.82376C35.6929 4.28097 35.5496 3.65497 35.5942 3.02799C35.6601 2.16059 36.0627 1.3553 36.7136 0.789262C37.3644 0.223227 38.2101 -0.0571824 39.0646 0.00972185C39.9191 0.0766261 40.7124 0.485363 41.2701 1.14602C41.8277 1.80667 42.1039 2.66512 42.038 3.53252C41.991 3.83243 41.9172 4.12736 41.8175 4.41366C41.786 4.5167 41.7755 4.5771 41.8735 4.65171C42.6715 5.25572 43.4766 5.86684 44.2991 6.48151ZM41.044 3.16656C41.0425 2.72333 40.9122 2.29039 40.6695 1.92195C40.4268 1.55351 40.0824 1.26594 39.6794 1.09526C39.2764 0.924577 38.8328 0.878362 38.4041 0.962401C37.9754 1.04644 37.5806 1.257 37.2692 1.56771C36.9578 1.87843 36.7436 2.27549 36.6535 2.70917C36.5634 3.14286 36.6013 3.5939 36.7625 4.00582C36.9237 4.41773 37.2011 4.77222 37.5598 5.02489C37.9186 5.27755 38.3428 5.41717 38.7793 5.42627C39.0752 5.43243 39.3692 5.37848 39.6442 5.26759C39.9191 5.1567 40.1695 4.99111 40.3805 4.78057C40.5915 4.57002 40.7589 4.31877 40.8728 4.04159C40.9868 3.76441 41.045 3.4669 41.044 3.16656ZM37.6803 12.5465C37.6776 12.8819 37.7737 13.2106 37.9562 13.4903C38.1387 13.7699 38.3994 13.9879 38.7048 14.1162C39.0101 14.2445 39.3463 14.2773 39.6702 14.2104C39.994 14.1435 40.2908 13.98 40.5225 13.7407C40.7542 13.5015 40.9102 13.1974 40.9705 12.8676C41.0309 12.5378 40.9928 12.1971 40.8611 11.8894C40.7295 11.5817 40.5103 11.3209 40.2317 11.1404C39.9531 10.96 39.6278 10.8681 39.2974 10.8766C38.867 10.8885 38.4579 11.069 38.1558 11.3803C37.8537 11.6916 37.682 12.1095 37.6768 12.5465H37.6803ZM45.7727 9.75026C45.9747 9.75356 46.1753 9.71602 46.3629 9.63983C46.5505 9.56364 46.7212 9.45032 46.8652 9.30647C47.0092 9.16262 47.1236 8.99112 47.2016 8.80197C47.2796 8.61281 47.3198 8.40978 47.3198 8.20471C47.3216 7.99848 47.2834 7.7939 47.2074 7.60265C47.1313 7.41141 47.0189 7.23724 46.8766 7.09009C46.7342 6.94294 46.5647 6.8257 46.3777 6.74505C46.1907 6.66441 45.9899 6.62194 45.7867 6.62007C45.5836 6.61821 45.382 6.65698 45.1936 6.73418C45.0052 6.81137 44.8336 6.92548 44.6887 7.06999C44.5437 7.2145 44.4282 7.38657 44.3488 7.57639C44.2693 7.76621 44.2275 7.97005 44.2256 8.17629C44.2238 8.38291 44.2624 8.58785 44.3392 8.7792C44.416 8.97055 44.5296 9.1445 44.6732 9.29094C44.8168 9.43738 44.9876 9.55339 45.1758 9.63225C45.3639 9.7111 45.5657 9.75121 45.7692 9.75026H45.7727Z" fill="#0078D4"/>
</svg>
