<svg width="24" height="24" viewBox="0 0 24 24" fill="none" xmlns="http://www.w3.org/2000/svg">
<rect x="0.5" y="0.5" width="23" height="23" rx="3.5" fill="#0078D4"/>
<rect x="0.5" y="0.5" width="23" height="23" rx="3.5" stroke="#0078D4"/>
<path d="M18 16.1414L16.491 14.6949V11.1303C16.491 10.0168 16.1976 9.05246 15.6108 8.23737C15.012 7.38784 14.1856 6.83681 13.1317 6.58424V6.08486C13.1317 5.78638 13.021 5.53095 12.7994 5.31857C12.5778 5.10619 12.3114 5 12 5C11.6886 5 11.4252 5.10619 11.2096 5.31857C10.994 5.53095 10.8862 5.78638 10.8862 6.08486V6.58424C9.82035 6.83681 8.98803 7.3821 8.38922 8.22015C7.80239 9.03524 7.50898 10.0053 7.50898 11.1303V14.6949L6 16.1414V16.8474H18V16.1414Z" fill="white"/>
<path d="M10.9311 18.5867C11.2246 18.8622 11.5808 19 12 19C12.4072 19 12.7605 18.8622 13.0599 18.5867C13.3593 18.3112 13.509 17.9783 13.509 17.588H10.491C10.491 17.9783 10.6377 18.3112 10.9311 18.5867Z" fill="white"/>
</svg>
