<svg width="20" height="20" viewBox="0 0 20 20" fill="none" xmlns="http://www.w3.org/2000/svg">
<circle cx="10" cy="10" r="10" fill="#0078D4"/>
<path d="M7.10805 9.34743C7.8878 10.8723 9.12818 12.1126 10.653 12.8924L11.8363 11.7091C11.9067 11.6386 11.9954 11.5891 12.0923 11.5663C12.1892 11.5435 12.2906 11.5481 12.3851 11.5798C13.0048 11.7835 13.6531 11.8871 14.3055 11.8867C14.4481 11.887 14.5847 11.9438 14.6855 12.0446C14.7862 12.1454 14.843 12.282 14.8434 12.4245V14.3017C14.843 14.4442 14.7862 14.5808 14.6855 14.6816C14.5847 14.7824 14.4481 14.8392 14.3055 14.8396C13.1046 14.8401 11.9154 14.604 10.8058 14.1448C9.69617 13.6856 8.68786 13.0123 7.83847 12.1634C6.98908 11.3145 6.31524 10.3065 5.85544 9.19715C5.39564 8.08777 5.15888 6.89868 5.15869 5.69779C5.15907 5.55525 5.21586 5.41866 5.31665 5.31787C5.41744 5.21708 5.55403 5.16029 5.69657 5.15991H7.57951C7.72205 5.16029 7.85864 5.21708 7.95943 5.31787C8.06022 5.41866 8.11701 5.55525 8.11739 5.69779C8.11665 6.34898 8.21999 6.9961 8.42351 7.61467C8.45397 7.70961 8.45754 7.81113 8.43384 7.90798C8.41013 8.00483 8.36008 8.09323 8.28923 8.16338L7.10805 9.34743Z" fill="white"/>
</svg>
