<svg width="37" height="24" viewBox="0 0 37 24" fill="none" xmlns="http://www.w3.org/2000/svg">
<rect width="36.25" height="24" rx="6" fill="#03B93F"/>
<path d="M5.188 15.58C5.188 15.844 5.404 16.06 5.656 16.06C5.92 16.06 6.136 15.844 6.136 15.58V12.736H8.548L10.912 15.808C11.02 15.952 11.164 16.06 11.356 16.06C11.596 16.06 11.836 15.844 11.836 15.592C11.836 15.46 11.776 15.352 11.68 15.244L9.592 12.556C10.9 12.304 11.836 11.5 11.836 10.12V10.096C11.836 9.436 11.596 8.848 11.188 8.44C10.66 7.912 9.832 7.6 8.8 7.6H5.656C5.404 7.6 5.188 7.816 5.188 8.08V15.58ZM6.136 11.884V8.476H8.728C10.084 8.476 10.876 9.1 10.876 10.132V10.156C10.876 11.236 9.976 11.884 8.716 11.884H6.136ZM13.9799 15.58C13.9799 15.844 14.1959 16.06 14.4479 16.06C14.7119 16.06 14.9279 15.844 14.9279 15.58V13.036H16.9679C18.7559 13.036 20.2679 12.1 20.2679 10.288V10.264C20.2679 8.608 19.0199 7.6 17.1239 7.6H14.4479C14.1959 7.6 13.9799 7.816 13.9799 8.08V15.58ZM14.9279 12.172V8.476H17.0519C18.4079 8.476 19.3079 9.1 19.3079 10.3V10.324C19.3079 11.428 18.3959 12.172 17.0039 12.172H14.9279ZM22.1155 15.592C22.1155 15.856 22.3195 16.06 22.5715 16.06C22.8355 16.06 23.0395 15.856 23.0395 15.592V9.328L25.7155 13.264C25.8235 13.42 25.9555 13.504 26.1235 13.504C26.2915 13.504 26.4115 13.42 26.5195 13.264L29.2075 9.316V15.58C29.2075 15.832 29.4235 16.06 29.6875 16.06C29.9395 16.06 30.1555 15.844 30.1555 15.58V8.032C30.1555 7.78 29.9395 7.564 29.6875 7.564H29.5795C29.3875 7.564 29.2315 7.66 29.1355 7.816L26.1355 12.328L23.1355 7.816C23.0395 7.672 22.8955 7.564 22.6915 7.564H22.5835C22.3315 7.564 22.1155 7.78 22.1155 8.032V15.592Z" fill="white" fill-opacity="0.8"/>
</svg>
