<svg width="67" height="24" viewBox="0 0 67 24" fill="none" xmlns="http://www.w3.org/2000/svg">
<path d="M27.7917 9.82909L21.75 9.81818C21.0854 9.81818 20.5417 10.3091 20.5417 10.9091V22.9091C20.5417 23.5091 21.0854 24 21.75 24H27.7917C28.4563 24 29 23.5091 29 22.9091V10.9091C29 10.3091 28.4563 9.82909 27.7917 9.82909ZM27.7917 21.8182H21.75V12H27.7917V21.8182ZM24.1667 0H2.41667C1.07542 0 0 0.970909 0 2.18182V17.4545C0 18.6545 1.07542 19.6364 2.41667 19.6364H10.875V21.8182H8.45833V24H18.125V21.8182H15.7083V19.6364H18.125V17.4545H2.41667V2.18182H24.1667V7.63636H26.5833V2.18182C26.5833 0.970909 25.4958 0 24.1667 0ZM14.4638 8.72727L13.2917 5.45455L12.1196 8.72727H8.45833L11.4429 10.6473L10.3071 13.8218L13.2917 11.8582L16.2763 13.8218L15.1404 10.6473L18.125 8.72727H14.4638Z" fill="#3C4549"/>
<path d="M35 0.5H56C61.799 0.5 66.5 5.20101 66.5 11V13C66.5 18.799 61.799 23.5 56 23.5H35C34.1716 23.5 33.5 22.8284 33.5 22V2C33.5 1.17157 34.1716 0.5 35 0.5Z" stroke="#FFB300"/>
<path d="M41.312 17.168C38.708 17.168 37.714 14.886 37.714 12.352C37.714 9.818 38.89 7.522 41.508 7.522C42.712 7.522 43.524 7.984 44.098 8.642L43.51 9.51C43.034 8.95 42.488 8.558 41.508 8.558C39.702 8.558 38.876 10.392 38.876 12.226C38.876 12.352 38.876 12.464 38.89 12.59C39.296 11.946 40.332 11.134 41.536 11.134C43.216 11.134 44.588 12.128 44.588 14.116C44.588 15.74 43.356 17.168 41.312 17.168ZM41.27 16.132C42.712 16.132 43.412 15.054 43.412 14.158C43.412 12.786 42.46 12.142 41.256 12.142C40.332 12.142 39.436 12.716 38.918 13.542C39.03 14.704 39.646 16.132 41.27 16.132ZM48.3935 17H47.1055L50.8715 8.698H45.8455V7.662H52.2155V8.46L48.3935 17ZM55.4306 12.128C54.1006 12.128 53.1906 11.148 53.1906 9.846C53.1906 8.53 54.1006 7.522 55.4306 7.522C56.7746 7.522 57.6986 8.53 57.6986 9.846C57.6986 11.148 56.7746 12.128 55.4306 12.128ZM55.3046 17H54.5486L60.5126 7.662H61.2826L55.3046 17ZM60.3026 17.168C58.9726 17.168 58.0626 16.188 58.0626 14.886C58.0626 13.57 58.9726 12.562 60.3026 12.562C61.6326 12.562 62.5566 13.57 62.5566 14.886C62.5566 16.188 61.6326 17.168 60.3026 17.168ZM55.4306 11.428C56.2706 11.428 56.8586 10.728 56.8586 9.846C56.8586 8.922 56.2706 8.236 55.4306 8.236C54.6046 8.236 54.0306 8.922 54.0306 9.846C54.0306 10.728 54.6046 11.428 55.4306 11.428ZM60.3026 16.468C61.1426 16.468 61.7306 15.768 61.7306 14.886C61.7306 13.962 61.1426 13.276 60.3026 13.276C59.4626 13.276 58.8886 13.962 58.8886 14.886C58.8886 15.768 59.4626 16.468 60.3026 16.468Z" fill="#FFB300"/>
</svg>
