<svg width="25" height="22" viewBox="0 0 25 22" fill="none" xmlns="http://www.w3.org/2000/svg">
<path d="M0 0H21C23.2091 0 25 1.79086 25 4V18C25 20.2091 23.2091 22 21 22H0V0Z" fill="#0078D4"/>
<path d="M19.1857 4.0183C19.0341 3.97223 18.9005 4.01952 18.766 4.08933C14.4599 6.32105 10.1535 8.55206 5.84683 10.7824C5.79399 10.8074 5.74327 10.837 5.69522 10.8709C5.40598 11.0901 5.44472 11.514 5.76782 11.6749C5.81176 11.6959 5.85675 11.7144 5.90259 11.7304C6.96611 12.119 8.02986 12.5068 9.09384 12.8938C9.22153 12.94 9.30036 13.009 9.35713 13.1413C10.0054 14.6504 10.6612 16.1562 11.3126 17.6639C11.3982 17.8618 11.5371 17.9854 11.7433 17.999C11.9421 18.0119 12.0789 17.8981 12.1774 17.7217C12.3648 17.3857 12.559 17.0538 12.7502 16.7204C13.1558 16.015 13.5618 15.3096 13.9754 14.5912C14.0478 14.6167 14.1074 14.6366 14.1664 14.6588C14.9254 14.9427 15.6842 15.2268 16.4429 15.5111C16.8215 15.6523 17.0974 15.4919 17.1858 15.0879C17.5789 13.29 17.973 11.4923 18.3681 9.69509C18.7401 8.00021 19.1123 6.30546 19.4846 4.61082C19.5457 4.33262 19.4206 4.08968 19.1857 4.0183ZM9.51633 12.0212C8.78 11.7475 8.04081 11.4822 7.30263 11.214C7.2521 11.1965 7.20392 11.174 7.13418 11.1454L15.6514 6.73461L15.6682 6.76149C15.5671 6.85224 15.4661 6.9437 15.365 7.03358C13.4958 8.68063 11.6278 10.328 9.76109 11.9758C9.67872 12.0482 9.61706 12.0585 9.51633 12.0212ZM11.4691 12.7941C11.3614 12.9192 11.3041 13.0823 11.3092 13.2498C11.3143 13.8956 11.3112 14.5404 11.3112 15.2331C11.2716 15.161 11.2501 15.1284 11.2342 15.0918C10.9198 14.3773 10.6051 13.6627 10.29 12.9481C10.2542 12.8671 10.2415 12.8119 10.321 12.7423C11.7334 11.5045 13.1436 10.2647 14.5517 9.02299C14.5651 9.01112 14.5808 9.0017 14.5955 8.99105L14.6123 9.012L13.2606 10.6393C12.6636 11.3577 12.0665 12.076 11.4691 12.7941ZM12.2543 15.7372V13.9364L13.0883 14.2485C12.811 14.7427 12.5425 15.222 12.2543 15.7372ZM16.3626 14.4413L12.528 12.988L18.1251 6.25135L18.1492 6.26601C17.5547 8.98663 16.9595 11.7117 16.3626 14.4413Z" fill="white"/>
</svg>
