<svg width="24" height="24" viewBox="0 0 24 24" fill="none" xmlns="http://www.w3.org/2000/svg">
<path d="M11.1369 22C10.7949 22.0008 10.4638 21.8799 10.2027 21.659C9.94168 21.438 9.76771 21.1314 9.71194 20.794L9.51194 19.567C9.14944 19.4472 8.79589 19.3018 8.45394 19.132L7.42594 19.864C7.14843 20.0626 6.8093 20.156 6.46924 20.1274C6.12919 20.0988 5.8104 19.9501 5.56994 19.708L4.34994 18.492C4.10676 18.2513 3.95744 17.9317 3.92884 17.5908C3.90024 17.2498 3.99425 16.9098 4.19394 16.632L4.91294 15.632C4.73088 15.2776 4.5761 14.9099 4.44994 14.532L3.20594 14.32C2.86936 14.2644 2.56344 14.0911 2.3426 13.8311C2.12177 13.5711 2.00035 13.2411 1.99994 12.9V11.182C1.99936 10.8401 2.12032 10.509 2.34122 10.248C2.56213 9.98699 2.8686 9.81296 3.20594 9.757L4.41594 9.557C4.53781 9.17959 4.6879 8.81189 4.86494 8.457L4.13294 7.421C3.93403 7.14287 3.84051 6.80307 3.86909 6.46233C3.89767 6.12159 4.04648 5.80212 4.28894 5.561L5.50894 4.345C5.75018 4.1027 6.06972 3.95407 6.41045 3.92567C6.75119 3.89728 7.09092 3.99097 7.36894 4.19L8.36894 4.912C8.72312 4.72981 9.09088 4.57535 9.46894 4.45L9.67994 3.205C9.73579 2.86861 9.90912 2.56292 10.1691 2.34228C10.4291 2.12165 10.7589 2.00037 11.0999 2H12.8169C13.1589 1.99922 13.4901 2.12011 13.7511 2.34105C14.0122 2.56199 14.1862 2.86858 14.2419 3.206L14.4419 4.416C14.8366 4.54361 15.2208 4.70176 15.5909 4.889L16.6069 4.166C16.8843 3.96746 17.2232 3.87413 17.5631 3.90271C17.903 3.9313 18.2216 4.07993 18.4619 4.322L19.6779 5.537C19.9211 5.77772 20.0704 6.09737 20.0988 6.43839C20.1272 6.7794 20.033 7.11935 19.8329 7.397L19.1099 8.409C19.289 8.76387 19.4414 9.13155 19.5659 9.509L20.7929 9.717C21.1325 9.76953 21.4416 9.94296 21.6634 10.2054C21.8852 10.4678 22.0047 10.8015 21.9999 11.145V12.859C22.0007 13.201 21.8798 13.5321 21.6589 13.7932C21.4379 14.0543 21.1314 14.2282 20.7939 14.284L19.5669 14.484C19.4424 14.8614 19.2899 15.2291 19.1109 15.584L19.8349 16.6C20.0336 16.8782 20.127 17.218 20.0985 17.5586C20.0699 17.8993 19.9212 18.2188 19.6789 18.46L18.4639 19.675C18.2226 19.9176 17.9029 20.0664 17.5619 20.0947C17.221 20.1231 16.881 20.0293 16.6029 19.83L15.5919 19.107C15.2372 19.286 14.8695 19.4381 14.4919 19.562L14.2839 20.79C14.2288 21.1281 14.0552 21.4355 13.7941 21.6572C13.533 21.8789 13.2015 22.0004 12.8589 22H11.1369ZM8.79194 17.534C9.29783 17.826 9.8407 18.0487 10.4059 18.196C10.5531 18.2339 10.6862 18.3137 10.7889 18.4257C10.8917 18.5377 10.9598 18.6771 10.9849 18.827L11.2529 20.427H12.7529L13.0239 18.827C13.0478 18.6763 13.1155 18.536 13.2187 18.4236C13.3218 18.3112 13.4558 18.2317 13.6039 18.195C14.1821 18.0471 14.7361 17.8171 15.2489 17.512C15.3703 17.4408 15.5083 17.4029 15.6489 17.402C15.8125 17.4016 15.972 17.4527 16.1049 17.548L17.4289 18.491L18.4899 17.43L17.5469 16.1C17.4593 15.9755 17.4093 15.8284 17.4029 15.6763C17.3965 15.5242 17.434 15.3734 17.5109 15.242C17.8167 14.7281 18.0473 14.1732 18.1959 13.594C18.2339 13.4468 18.3137 13.3138 18.4257 13.211C18.5376 13.1083 18.677 13.0402 18.8269 13.015L20.4269 12.747V12.62V11.251L18.8269 10.98C18.6771 10.9554 18.5378 10.8873 18.4263 10.7842C18.3149 10.6811 18.2361 10.5475 18.1999 10.4C18.0513 9.82211 17.8213 9.26825 17.5169 8.755C17.4388 8.6237 17.4004 8.47249 17.4066 8.3198C17.4129 8.16711 17.4633 8.01952 17.5519 7.895L18.4949 6.571L17.4349 5.511L16.1179 6.458C15.9936 6.54599 15.8465 6.59619 15.6942 6.60257C15.542 6.60896 15.3912 6.57126 15.2599 6.494C14.7329 6.18331 14.1641 5.94961 13.5709 5.8C13.4224 5.7624 13.288 5.6823 13.1843 5.56952C13.0806 5.45674 13.012 5.31616 12.9869 5.165L12.7189 3.572H11.2189L10.9469 5.19C10.9203 5.33856 10.8521 5.47655 10.7504 5.58803C10.6487 5.6995 10.5174 5.77993 10.3719 5.82C9.79311 5.97062 9.23906 6.20403 8.72694 6.513C8.60394 6.58558 8.46375 6.6239 8.32094 6.624C8.15725 6.62424 7.99754 6.57357 7.86394 6.479L6.54594 5.539L5.48494 6.6L6.43694 7.938C6.52546 8.06105 6.57636 8.20715 6.58346 8.35857C6.59056 8.50998 6.55355 8.66021 6.47694 8.791C6.17366 9.30586 5.94567 9.8615 5.79994 10.441C5.76203 10.5896 5.68172 10.7239 5.56878 10.8276C5.45585 10.9313 5.31519 10.9999 5.16394 11.025L3.57194 11.293V12.793L5.18894 13.069C5.3375 13.0957 5.47548 13.1638 5.58696 13.2655C5.69844 13.3673 5.77886 13.4985 5.81894 13.644C5.9699 14.2227 6.20329 14.7767 6.51194 15.289C6.58944 15.421 6.62743 15.5725 6.6214 15.7255C6.61538 15.8785 6.56559 16.0265 6.47794 16.152L5.53794 17.47L6.59994 18.527L7.93794 17.575C8.07075 17.4795 8.23035 17.4284 8.39394 17.429C8.53349 17.4287 8.6707 17.4649 8.79194 17.534ZM7.54394 12C7.54335 11.1181 7.80435 10.2558 8.29393 9.52224C8.78351 8.78869 9.47966 8.21683 10.2943 7.87902C11.109 7.5412 12.0055 7.45261 12.8705 7.62444C13.7356 7.79628 14.5302 8.22082 15.1539 8.84437C15.7775 9.46791 16.2023 10.2624 16.3743 11.1274C16.5463 11.9924 16.4579 12.889 16.1203 13.7037C15.7827 14.5184 15.211 15.2147 14.4775 15.7045C13.7441 16.1942 12.8819 16.4554 11.9999 16.455C10.8189 16.4531 9.6867 15.9832 8.85147 15.1482C8.01624 14.3131 7.54605 13.1811 7.54394 12ZM9.12194 12C9.12253 12.5696 9.292 13.1262 9.6089 13.5994C9.92581 14.0727 10.3759 14.4414 10.9023 14.6588C11.4288 14.8763 12.0078 14.9328 12.5664 14.8211C13.1249 14.7095 13.6378 14.4348 14.0402 14.0317C14.4426 13.6286 14.7164 13.1152 14.8271 12.5565C14.9377 11.9978 14.8802 11.4188 14.6618 10.8928C14.4435 10.3668 14.074 9.91727 13.6002 9.60119C13.1264 9.2851 12.5695 9.11661 11.9999 9.117C11.2362 9.11833 10.5042 9.42265 9.96458 9.96318C9.42499 10.5037 9.12194 11.2362 9.12194 12Z" fill="#757575"/>
</svg>
