<svg width="24" height="23" viewBox="0 0 24 23" fill="none" xmlns="http://www.w3.org/2000/svg">
<path d="M11.4393 13.5322C11.4393 13.7594 11.349 13.9773 11.1884 14.1379C11.0277 14.2986 10.8098 14.3888 10.5826 14.3888H0.856683C0.629477 14.3888 0.411576 14.2986 0.250917 14.1379C0.0902574 13.9773 0 13.7594 0 13.5322C0 13.305 0.0902574 13.0871 0.250917 12.9264C0.411576 12.7657 0.629477 12.6755 0.856683 12.6755H10.5826C10.8098 12.6755 11.0277 12.7657 11.1884 12.9264C11.349 13.0871 11.4393 13.305 11.4393 13.5322ZM10.5826 16.1022H3.42673C3.19953 16.1022 2.98162 16.1925 2.82097 16.3531C2.66031 16.5138 2.57005 16.7317 2.57005 16.9589C2.57005 17.1861 2.66031 17.404 2.82097 17.5647C2.98162 17.7253 3.19953 17.8156 3.42673 17.8156H10.5826C10.8098 17.8156 11.0277 17.7253 11.1884 17.5647C11.349 17.404 11.4393 17.1861 11.4393 16.9589C11.4393 16.7317 11.349 16.5138 11.1884 16.3531C11.0277 16.1925 10.8098 16.1022 10.5826 16.1022ZM10.5826 19.5289H5.99678C5.76957 19.5289 5.55167 19.6192 5.39101 19.7799C5.23036 19.9405 5.1401 20.1584 5.1401 20.3856C5.1401 20.6128 5.23036 20.8307 5.39101 20.9914C5.55167 21.1521 5.76957 21.2423 5.99678 21.2423H10.5826C10.8098 21.2423 11.0277 21.1521 11.1884 20.9914C11.349 20.8307 11.4393 20.6128 11.4393 20.3856C11.4393 20.1584 11.349 19.9405 11.1884 19.7799C11.0277 19.6192 10.8098 19.5289 10.5826 19.5289ZM15.123 13.3043L18.5686 9.86299C18.7247 9.70142 18.811 9.48502 18.8091 9.2604C18.8071 9.03578 18.717 8.82091 18.5582 8.66208C18.3993 8.50324 18.1845 8.41315 17.9598 8.41119C17.7352 8.40924 17.5188 8.49559 17.3573 8.65164L13.9134 12.0904C13.8316 12.1694 13.7663 12.2639 13.7214 12.3684C13.6765 12.473 13.6529 12.5854 13.6519 12.6991C13.6509 12.8129 13.6726 12.9257 13.7156 13.031C13.7587 13.1363 13.8223 13.2319 13.9028 13.3123C13.9832 13.3928 14.0789 13.4564 14.1841 13.4995C14.2894 13.5425 14.4022 13.5642 14.516 13.5632C14.6297 13.5622 14.7421 13.5386 14.8467 13.4937C14.9512 13.4488 15.0457 13.3835 15.1247 13.3017L15.123 13.3043ZM15.374 3.31194V1.71337H16.1845C16.4117 1.71337 16.6296 1.62311 16.7902 1.46245C16.9509 1.30179 17.0411 1.08389 17.0411 0.856683C17.0411 0.629477 16.9509 0.411576 16.7902 0.250917C16.6296 0.0902576 16.4117 0 16.1845 0H12.852C12.6248 0 12.4069 0.0902576 12.2462 0.250917C12.0855 0.411576 11.9953 0.629477 11.9953 0.856683C11.9953 1.08389 12.0855 1.30179 12.2462 1.46245C12.4069 1.62311 12.6248 1.71337 12.852 1.71337H13.6624V3.31022C11.6773 3.48566 9.79946 4.28792 8.3004 5.60099L7.17472 4.47531C7.01409 4.31445 6.79613 4.22399 6.56879 4.22383C6.34146 4.22367 6.12338 4.31382 5.96251 4.47446C5.80165 4.63509 5.71119 4.85305 5.71103 5.08038C5.71087 5.30771 5.80102 5.5258 5.96166 5.68666L7.12332 6.84747C6.4155 7.7424 5.87591 8.75831 5.53075 9.84586C5.47003 10.0603 5.4953 10.29 5.6012 10.4862C5.7071 10.6824 5.88529 10.8295 6.09792 10.8964C6.31056 10.9633 6.5409 10.9447 6.74003 10.8445C6.93917 10.7443 7.09141 10.5705 7.16444 10.3599C7.65538 8.79677 8.63323 7.43157 9.95515 6.46367C11.2771 5.49577 12.8738 4.97587 14.5122 4.9799H14.5191H14.5259C16.5719 4.98058 18.5338 5.794 19.9801 7.24122C21.4263 8.68844 22.2385 10.6509 22.2378 12.6969C22.2371 14.7429 21.4237 16.7048 19.9765 18.1511C18.5292 19.5973 16.5668 20.4094 14.5208 20.4088C14.3717 20.4088 14.2218 20.4011 14.0487 20.3925C13.8236 20.3846 13.6045 20.4656 13.4387 20.6181C13.2729 20.7706 13.1738 20.9822 13.1629 21.2072C13.1546 21.4355 13.2366 21.6578 13.3912 21.8259C13.5459 21.994 13.7606 22.0943 13.9888 22.105C14.1661 22.1136 14.3443 22.1221 14.5208 22.1221C16.9554 22.1365 19.3012 21.2081 21.0664 19.5313C22.8317 17.8545 23.8795 15.5596 23.9902 13.1275C24.101 10.6953 23.2661 8.31464 21.6605 6.48439C20.055 4.65413 17.8033 3.51631 15.3775 3.30937L15.374 3.31194Z" fill="#3C4549"/>
</svg>
