<svg width="24" height="24" viewBox="0 0 24 24" fill="none" xmlns="http://www.w3.org/2000/svg">
<path fill-rule="evenodd" clip-rule="evenodd" d="M10.7879 16.7222C9.86741 16.7222 9.12122 15.976 9.12122 15.0556V13.0859H7.55556C6.93442 13.0859 6.36482 12.7404 6.07767 12.1897C5.79053 11.6389 5.8335 10.9741 6.18916 10.4649L10.6336 4.10124C10.9454 3.65485 11.4555 3.38889 12 3.38889C12.5445 3.38889 13.0546 3.65485 13.3664 4.10124L17.8109 10.4649C18.1665 10.9741 18.2095 11.6389 17.9223 12.1897C17.6352 12.7404 17.0656 13.0859 16.4445 13.0859H14.8788V15.0556C14.8788 15.976 14.1326 16.7222 13.2121 16.7222H10.7879ZM16.4445 11.4192H13.2121V15.0556H10.7879V11.4192H7.55556L12 5.05556L16.4445 11.4192Z" fill="#757575"/>
<path fill-rule="evenodd" clip-rule="evenodd" d="M2 19.5C2 18.8863 2.49746 18.3889 3.11111 18.3889H20.8889C21.5025 18.3889 22 18.8863 22 19.5C22 20.1136 21.5025 20.6111 20.8889 20.6111H3.11111C2.49746 20.6111 2 20.1136 2 19.5Z" fill="#757575"/>
</svg>
