<svg width="35" height="27" viewBox="0 0 35 27" fill="none" xmlns="http://www.w3.org/2000/svg">
<path fill-rule="evenodd" clip-rule="evenodd" d="M15 7.22727C15 10.1142 12.7614 12.4545 10 12.4545C7.23858 12.4545 5 10.1142 5 7.22727C5 4.34033 7.23858 2 10 2C12.7614 2 15 4.34033 15 7.22727ZM13 7.22727C13 8.95944 11.6569 10.3636 10 10.3636C8.34315 10.3636 7 8.95944 7 7.22727C7 5.49511 8.34315 4.09091 10 4.09091C11.6569 4.09091 13 5.49511 13 7.22727Z" fill="#3C4549"/>
<path d="M2 19.7727C2 18.0406 3.34326 16.6364 5 16.6364H15C16.6567 16.6364 18 18.0406 18 19.7727V23.9545C18 24.5319 18.4478 25 19 25C19.5522 25 20 24.5319 20 23.9545V19.7727C20 16.8857 17.7615 14.5455 15 14.5455H5C2.23853 14.5455 0 16.8857 0 19.7727V23.9545C0 24.5319 0.447754 25 1 25C1.55225 25 2 24.5319 2 23.9545V19.7727Z" fill="#3C4549"/>
<path d="M15.7196 21.2364C15.8744 21.2364 16 21.1115 16 20.9576V20.6297C16 20.4757 15.8744 20.3509 15.7196 20.3509H14.461V19.0061C14.461 18.8521 14.3355 18.7273 14.1806 18.7273H13.8273C13.6724 18.7273 13.5468 18.8521 13.5468 19.0061V20.3509H12.2804C12.1256 20.3509 12 20.4757 12 20.6297V20.9576C12 21.1115 12.1256 21.2364 12.2804 21.2364H13.5468V22.6303C13.5468 22.7843 13.6724 22.9091 13.8273 22.9091H14.1806C14.3355 22.9091 14.461 22.7843 14.461 22.6303V21.2364H15.7196Z" fill="#3C4549"/>
<rect x="20" width="15" height="15" rx="7.5" fill="#0AC247"/>
<path fill-rule="evenodd" clip-rule="evenodd" d="M30.566 8.20735C30.8421 8.20735 31.066 7.99679 31.066 7.73704V7.18394C31.066 6.9242 30.8421 6.71363 30.566 6.71363H28.322V4.40531C28.322 4.14557 28.0981 3.935 27.822 3.935H27.192C26.9159 3.935 26.692 4.14557 26.692 4.40531V6.71363H24.434C24.1579 6.71363 23.934 6.9242 23.934 7.18394V7.73704C23.934 7.99679 24.1579 8.20735 24.434 8.20735H26.692V10.5947C26.692 10.8544 26.9159 11.065 27.192 11.065H27.822C28.0981 11.065 28.322 10.8544 28.322 10.5947V8.20735H30.566Z" fill="white"/>
</svg>
