<svg width="24" height="24" viewBox="0 0 24 24" fill="none" xmlns="http://www.w3.org/2000/svg">
<rect width="24" height="24" rx="4" fill="#FFB300"/>
<path fill-rule="evenodd" clip-rule="evenodd" d="M10.592 6.31335C11.2176 5.22888 12.7808 5.22888 13.4083 6.31335L19.0356 16.0627C19.3384 16.585 19.313 17.1725 19.0628 17.6404C18.7962 18.1373 18.2739 18.5 17.6283 18.5H6.37197C5.11885 18.5 4.33905 17.1435 4.96289 16.0627L10.592 6.31335ZM12.915 9.21493H11.058V13.8575H12.915V9.21493ZM11.9865 16.643C12.4998 16.643 12.915 16.2259 12.915 15.7145C12.915 15.2031 12.4998 14.786 11.9865 14.786C11.7599 14.786 11.5513 14.8694 11.3899 15.0036C11.2775 15.0979 11.1868 15.2176 11.1288 15.3554C11.0834 15.4678 11.058 15.5875 11.058 15.7145C11.058 16.001 11.1886 16.2549 11.3917 16.4254C11.5531 16.5596 11.7599 16.643 11.9865 16.643Z" fill="white"/>
</svg>
